<?xml version="1.0" encoding="utf-8"?>
<!-- Generator: Adobe Illustrator 27.0.1, SVG Export Plug-In . SVG Version: 6.00 Build 0)  -->
<svg version="1.1" id="_レイヤー_2" xmlns="http://www.w3.org/2000/svg" xmlns:xlink="http://www.w3.org/1999/xlink" x="0px"
	 y="0px" viewBox="0 0 240.4 367.9" style="enable-background:new 0 0 240.4 367.9;" xml:space="preserve">
<style type="text/css">
	.st0{fill:#FFFFFF;}
</style>
<g id="logomark">
	<path class="st0" d="M104,169.6c0.1,8.2-0.2,18.7-1,31.2c-0.1,1.4,0.9,2.6,2.3,2.7h0.2c1.3,0,2.4-1,2.5-2.3
		c0.8-12.6,1.2-23.2,1-31.6c0-1.4-1.2-2.4-2.5-2.5C105.1,167,104,168.2,104,169.6L104,169.6z M26.9,64.3l1.5,1l1.5-1
		c0.4-0.3,9.3-6.8,9.3-16.9c0-8.2-5.8-14-8.3-16V22c0-1.4-1.1-2.5-2.5-2.5s-2.5,1.1-2.5,2.5v9.4c-2.4,2.1-8.3,7.9-8.3,16
		C17.6,57.5,26.5,64,26.9,64.3z M28.4,35.8c2.1,2,5.8,6.2,5.8,11.6S30.5,57,28.3,59c-2.1-2-5.8-6.2-5.8-11.6S26.2,37.8,28.4,35.8z
		 M35.9,64.2c-7.1,7.1-5.4,18.1-5.3,18.5l0.3,1.8l1.8,0.3c0.2,0,1.5,0.2,3.5,0.2c3.9,0,10.3-0.8,15.1-5.6c7.2-7.1,5.4-18.1,5.3-18.5
		l-0.3-1.8l-1.8-0.3C54,58.8,43,57.1,35.9,64.2z M39.4,67.8c3.8-3.8,9.4-4.2,12.3-4.1c0.1,2.9-0.3,8.5-4.1,12.3s-9.4,4.2-12.3,4.1
		C35.3,77.2,35.6,71.6,39.4,67.8z M56.5,87.1l-0.3-1.8L54.4,85c-0.5-0.1-11.4-1.8-18.5,5.3c-7.1,7.2-5.4,18.1-5.3,18.5l0.3,1.8
		l1.8,0.3c0.2,0,1.5,0.2,3.5,0.2c3.9,0,10.3-0.8,15.1-5.6C58.3,98.4,56.6,87.5,56.5,87.1z M47.6,102c-3.8,3.8-9.4,4.2-12.3,4.1
		c-0.1-2.9,0.3-8.5,4.1-12.3c3.8-3.8,9.4-4.2,12.3-4.1C51.8,92.7,51.4,98.2,47.6,102z M56.5,113.1l-0.3-1.8l-1.8-0.3
		c-0.5-0.1-11.4-1.8-18.5,5.3c-7.1,7.2-5.4,18.1-5.3,18.5l0.3,1.8l1.8,0.3c0.2,0,1.5,0.2,3.5,0.2c3.9,0,10.3-0.8,15.1-5.6
		C58.3,124.5,56.6,113.6,56.5,113.1L56.5,113.1z M47.6,128.1c-3.8,3.8-9.4,4.2-12.3,4.1c-0.1-2.9,0.3-8.5,4.1-12.3
		c3.8-3.8,9.4-4.2,12.3-4.1C51.8,118.7,51.4,124.3,47.6,128.1L47.6,128.1z M54.4,137.2c-0.5-0.1-11.4-1.8-18.5,5.3
		s-5.4,18.1-5.3,18.5l0.3,1.8l1.8,0.3c0.2,0,1.5,0.2,3.5,0.2c3.9,0,10.3-0.8,15.1-5.6c7.2-7.1,5.4-18.1,5.3-18.5l-0.3-1.8
		L54.4,137.2z M47.6,154.2c-3.8,3.8-9.4,4.2-12.3,4.1c-0.1-2.9,0.3-8.5,4.1-12.3s9.4-4.2,12.3-4.1C51.8,144.9,51.4,150.4,47.6,154.2
		L47.6,154.2z M20.6,85.1c2,0,3.3-0.2,3.5-0.2l1.8-0.3l0.3-1.8c0.1-0.5,1.8-11.4-5.3-18.5S2.8,58.8,2.3,58.9l-1.8,0.3L0.2,61
		c-0.1,0.5-1.8,11.4,5.3,18.5C10.3,84.2,16.7,85.1,20.6,85.1z M5,63.7c2.9-0.1,8.5,0.3,12.3,4.1c3.8,3.8,4.2,9.4,4.1,12.3
		c-2.9,0.1-8.4-0.3-12.3-4.1C5.3,72.2,4.9,66.6,5,63.7L5,63.7z M21.1,90.3C14,83.2,3.1,84.9,2.6,85l-1.8,0.3L0.5,87
		c-0.1,0.5-1.8,11.4,5.3,18.5c4.8,4.8,11.2,5.6,15.1,5.6c2,0,3.3-0.2,3.5-0.2l1.8-0.3l0.3-1.8C26.5,108.4,28.3,97.5,21.1,90.3
		L21.1,90.3z M21.7,106.1c-2.9,0.1-8.4-0.3-12.3-4.1c-3.8-3.8-4.2-9.4-4.1-12.3c2.9-0.1,8.5,0.3,12.3,4.1
		C21.4,97.7,21.8,103.2,21.7,106.1L21.7,106.1z M20.6,137.2c2,0,3.3-0.2,3.5-0.2l1.8-0.3l0.3-1.8c0.1-0.5,1.8-11.4-5.3-18.5
		S2.8,111,2.3,111.1l-1.8,0.3l-0.3,1.8c-0.1,0.5-1.8,11.4,5.3,18.5C10.3,136.4,16.7,137.2,20.6,137.2z M5,115.8
		c2.9-0.1,8.4,0.3,12.3,4.1c3.8,3.8,4.2,9.4,4.1,12.3c-2.9,0.1-8.5-0.3-12.3-4.1C5.3,124.3,4.9,118.7,5,115.8z M21.1,142.5
		c-7.1-7.1-18.1-5.4-18.5-5.3l-1.8,0.3l-0.3,1.8c-0.1,0.5-1.8,11.4,5.3,18.5c4.8,4.8,11.2,5.6,15.1,5.6c2,0,3.3-0.2,3.5-0.2l1.8-0.3
		l0.3-1.8C26.5,160.6,28.3,149.7,21.1,142.5z M21.7,158.3c-2.9,0.1-8.5-0.3-12.3-4.1s-4.2-9.4-4.1-12.3c2.9-0.1,8.5,0.3,12.3,4.1
		C21.4,149.8,21.8,155.4,21.7,158.3L21.7,158.3z M210.6,64.3l1.4,1l1.4-1c0.4-0.3,9.3-6.8,9.3-16.9c0-8.2-5.8-14-8.3-16V22
		c0-1.4-1.1-2.5-2.5-2.5s-2.5,1.1-2.5,2.5v9.4c-2.4,2.1-8.3,7.9-8.3,16C201.3,57.5,210.2,64,210.6,64.3z M212,35.8
		c2.1,2,5.8,6.2,5.8,11.6s-3.7,9.6-5.8,11.6c-2.1-2-5.8-6.2-5.8-11.6S209.9,37.8,212,35.8z M204.3,85.1c2,0,3.3-0.2,3.5-0.2l1.8-0.3
		l0.3-1.8c0.1-0.5,1.8-11.4-5.3-18.5s-18.1-5.4-18.5-5.3l-1.8,0.3l-0.3,1.8c-0.1,0.5-1.8,11.4,5.3,18.5
		C194,84.2,200.4,85.1,204.3,85.1z M188.7,63.7c2.9-0.1,8.4,0.3,12.3,4.1c3.8,3.8,4.2,9.4,4.1,12.3c-2.9,0.1-8.5-0.3-12.3-4.1
		C189,72.1,188.6,66.6,188.7,63.7L188.7,63.7z M204.3,111.1c2,0,3.3-0.2,3.5-0.2l1.8-0.3l0.3-1.8c0.1-0.5,1.8-11.4-5.3-18.5
		S186.4,84.9,186,85l-1.8,0.3l-0.3,1.8c-0.1,0.5-1.8,11.4,5.3,18.5C194,110.3,200.4,111.1,204.3,111.1z M188.7,89.8
		c2.9-0.1,8.5,0.3,12.3,4.1c3.8,3.8,4.2,9.4,4.1,12.3c-2.9,0.1-8.5-0.3-12.3-4.1S188.6,92.7,188.7,89.8z M204.3,137.2
		c2,0,3.3-0.2,3.5-0.2l1.8-0.3l0.3-1.8c0.1-0.5,1.8-11.4-5.3-18.5s-18.1-5.4-18.5-5.3l-1.8,0.3l-0.3,1.8c-0.1,0.5-1.8,11.4,5.3,18.5
		C194,136.4,200.4,137.2,204.3,137.2L204.3,137.2z M188.7,115.9c2.9-0.1,8.5,0.3,12.3,4.1c3.8,3.8,4.2,9.4,4.1,12.3
		c-2.9,0.1-8.4-0.3-12.3-4.1C189,124.3,188.6,118.8,188.7,115.9L188.7,115.9z M204.3,163.3c2,0,3.3-0.2,3.5-0.2l1.8-0.3l0.3-1.8
		c0.1-0.5,1.8-11.4-5.3-18.5c-7.1-7.1-18.1-5.4-18.5-5.3l-1.8,0.3l-0.3,1.8c-0.1,0.5-1.8,11.4,5.3,18.5
		C194,162.5,200.4,163.3,204.3,163.3z M188.7,141.9c2.9-0.1,8.5,0.3,12.3,4.1c3.8,3.8,4.2,9.4,4.1,12.3c-2.9,0.1-8.5-0.3-12.3-4.1
		S188.6,144.8,188.7,141.9L188.7,141.9z M214.2,82.8l0.3,1.8l1.8,0.3c0.1,0,1.5,0.2,3.5,0.2c3.9,0,10.3-0.8,15.1-5.6
		c7.1-7.1,5.4-18.1,5.3-18.5l-0.3-1.8l-1.8-0.3c-0.5-0.1-11.4-1.8-18.5,5.3C212.4,71.4,214.2,82.3,214.2,82.8z M235.4,63.7
		c0.1,2.9-0.3,8.5-4.1,12.3s-9.4,4.2-12.3,4.1c-0.1-2.9,0.3-8.5,4.1-12.3S232.5,63.6,235.4,63.7z M216,110.9c0.1,0,1.5,0.2,3.5,0.2
		c3.9,0,10.3-0.8,15.1-5.6c7.1-7.2,5.4-18.1,5.3-18.5l-0.3-1.8l-1.8-0.3c-0.5-0.1-11.4-1.8-18.5,5.3c-7.1,7.2-5.4,18.1-5.3,18.5
		l0.3,1.8L216,110.9z M222.8,93.9c3.8-3.8,9.4-4.2,12.3-4.1c0.1,2.9-0.3,8.4-4.1,12.3c-3.8,3.8-9.4,4.2-12.3,4.1
		C218.6,103.2,219,97.7,222.8,93.9z M239.9,111.4l-1.8-0.3c-0.5-0.1-11.4-1.8-18.5,5.3c-7.1,7.2-5.4,18.1-5.3,18.5l0.3,1.8l1.8,0.3
		c0.1,0,1.5,0.2,3.5,0.2c3.9,0,10.3-0.8,15.1-5.6c7.1-7.2,5.4-18.1,5.3-18.5C240.2,113.1,239.9,111.4,239.9,111.4z M231.3,128.1
		c-3.8,3.8-9.4,4.2-12.3,4.1c-0.1-2.9,0.3-8.4,4.1-12.3c3.8-3.8,9.4-4.2,12.3-4.1C235.5,118.8,235.1,124.3,231.3,128.1L231.3,128.1z
		 M214,161l0.3,1.8l1.8,0.3c0.1,0,1.5,0.2,3.5,0.2c3.9,0,10.3-0.8,15.1-5.6c7.1-7.1,5.4-18.1,5.3-18.5l-0.3-1.8l-1.8-0.3
		c-0.5-0.1-11.4-1.8-18.5,5.3C212.2,149.7,213.9,160.6,214,161z M222.8,146.1c3.8-3.8,9.4-4.2,12.3-4.1c0.1,2.9-0.3,8.5-4.1,12.3
		c-3.8,3.8-9.4,4.2-12.3,4.1C218.6,155.4,219,149.9,222.8,146.1L222.8,146.1z"/>
	<path class="st0" d="M239.9,163.6l-1.8-0.3c-0.5-0.1-11.4-1.8-18.5,5.3c-7.1,7.1-5.4,18.1-5.3,18.5l0.1,0.4
		c-0.1,0.2-0.2,0.4-0.2,0.6c-1.7,9.2-4.8,18.1-9.1,26.4c-0.4-1.9-1.1-3.7-1.9-5.4c2.9-6.4,5.1-13.2,6.4-20.2l0.1,0l0.3-1.8
		c0.1-0.5,1.8-11.4-5.3-18.5s-18.1-5.4-18.5-5.3l-1.8,0.3l-0.3,1.8c-0.1,0.5-1.8,11.4,5.3,18.5c4.7,4.7,11.1,5.6,15,5.6
		c-1,4.9-2.5,9.8-4.4,14.4c-5.8-7.4-14.4-11.9-23.1-12h-0.4c-8.6,0-17.8,3.9-25.6,10.8c-0.3-3.8-0.5-7.8-0.7-11.9h4.8
		c4.7,0,8.5-3.8,8.5-8.5v-9.1c0-1.4-0.4-2.7-0.9-3.9c3.4-1.1,5.9-4.3,5.9-8.1v-9.1c0-1.4-0.4-2.7-0.9-3.9c3.4-1.1,5.9-4.3,5.9-8.1
		V131c0-1.4-0.4-2.7-0.9-3.9c3.4-1.1,5.9-4.3,5.9-8.1v-9.1c0-4.7-3.8-8.5-8.5-8.5h-5.2c0.4-2.8,0.8-5.7,1.1-8.8
		c2.2-25.2,0-46.8-0.5-51.2v-0.4c0-9-6.3-16.7-15-18.5C147.9,14.1,140.1,8,131.1,8c-1.2,0-2.4,0.1-3.6,0.3c-4.1-5.3-10.3-8.4-17-8.4
		C99.8,0,90.9,7.8,89.3,18.1C81,19.8,75.1,27,75.1,35.6V41c-0.4,3.2-2.8,25.5-0.5,51.6c0.4,4.6,1,8.9,1.7,12.9
		c-5.1,0.1-9.3,4.3-9.3,9.5v30.1c0,9.4,2.7,17.6,7.7,23.7c3.1,3.7,2.8,9.1-0.7,12.6l-10.2,10.4h0C55,192,46.3,196.5,40.6,204
		c-1.9-4.7-3.4-9.6-4.4-14.6c3.9,0,10.3-0.9,15-5.6c7.2-7.1,5.4-18.1,5.3-18.5l-0.3-1.8l-1.8-0.3c-0.5-0.1-11.4-1.8-18.5,5.3
		c-7.1,7.1-5.4,18.1-5.3,18.5l0.3,1.8h0.1c1.3,7.1,3.5,13.9,6.5,20.4c-0.8,1.8-1.4,3.6-1.8,5.5c-4.4-8.3-7.5-17.3-9.3-26.6
		c0-0.2-0.1-0.4-0.2-0.6l0.1-0.4c0.1-0.5,1.8-11.4-5.3-18.5s-18.1-5.4-18.5-5.3l-1.8,0.3l-0.3,1.8c-0.1,0.5-1.8,11.4,5.3,18.5
		c4.8,4.8,11.2,5.6,15.1,5.6c0.3,0,0.5,0,0.8,0c2.3,12.2,6.9,23.7,13.4,34.2c0.1,2.2,0.5,4.4,1.1,6.6c3.2,12.1,12.6,22,26.5,27.9
		c7.9,3.4,16.3,5.9,24.2,7.7l-19.8,12l10.6,17.5l35.2-21.3h15.4l35.2,21.3l10.6-17.5l-19.8-12c7.9-1.8,16.3-4.3,24.3-7.7
		c13.9-5.9,23.2-15.8,26.4-27.9c0.6-2.3,1-4.6,1.1-6.9c6.4-10.3,10.9-21.8,13.2-33.8c0.3,0,0.5,0,0.8,0c3.9,0,10.3-0.8,15.1-5.6
		c7.1-7.1,5.4-18.1,5.3-18.5L239.9,163.6L239.9,163.6z M192.8,180.3c-3.8-3.8-4.2-9.4-4.1-12.3c2.9-0.1,8.4,0.3,12.3,4.1
		c3.8,3.8,4.2,9.4,4.1,12.3C202.2,184.5,196.6,184.1,192.8,180.3L192.8,180.3z M35.3,184.4c-0.1-2.9,0.3-8.5,4.1-12.3
		s9.4-4.2,12.3-4.1c0.1,2.9-0.3,8.5-4.1,12.3S38.2,184.5,35.3,184.4z M21.4,184.4c-2.9,0.1-8.4-0.3-12.3-4.1
		c-3.8-3.8-4.2-9.4-4.1-12.3c2.9-0.1,8.5,0.3,12.3,4.1C21.1,175.9,21.5,181.5,21.4,184.4L21.4,184.4z M158.3,182.3
		c0,1.9-1.6,3.5-3.5,3.5h-19c-4.4,0-8-3.6-8-8s3.6-8,8-8h19c1.9,0,3.5,1.6,3.5,3.5V182.3L158.3,182.3z M163.3,161.2
		c0,1.9-1.6,3.5-3.5,3.5h-30.1c-2.4,0-4.6-1.1-6.1-2.8c-2.6-3-2.6-7.5,0-10.5c1.5-1.7,3.7-2.8,6.1-2.8h30.1c1.9,0,3.5,1.6,3.5,3.5
		V161.2z M168.3,140.1c0,1.9-1.6,3.5-3.5,3.5h-38.7c-0.9,0-1.7-0.1-2.5-0.4c-2.3-0.8-4.1-2.5-5-4.8c-0.3-0.9-0.6-1.9-0.6-2.9
		s0.2-2,0.6-2.9c0.9-2.2,2.7-4,5-4.8c0.8-0.3,1.6-0.4,2.5-0.4h38.7c1.9,0,3.5,1.6,3.5,3.5L168.3,140.1L168.3,140.1z M169.8,106.4
		c1.9,0,3.5,1.6,3.5,3.5v9.1c0,1.9-1.6,3.5-3.5,3.5h-18.1c-4.4,0-8-3.6-8-8s3.6-8,8-8L169.8,106.4L169.8,106.4z M161.5,63.1h-52.9
		V43.6h4.9v5.7c0,5,4.1,9.1,9.1,9.1s9.1-4.1,9.1-9.1v-5.7h28.6C160.7,46.9,161.3,54,161.5,63.1z M80.1,38.5v-2.9
		c0-6.7,5-12.2,11.7-12.9l2.1-0.2l0.1-2.1C94.6,11.8,101.8,5,110.5,5c5.6,0,10.8,2.8,13.8,7.5l1,1.5l1.8-0.5c1.3-0.4,2.6-0.5,4-0.5
		c7.2,0,13.3,5.1,14.6,12.2l0.3,1.9l1.9,0.2c6.2,0.7,11,5.3,12.1,11.3v0h-33.2v10.7c0,2.3-1.9,4.1-4.1,4.1s-4.1-1.9-4.1-4.1V38.6
		h-14.9v33.2c0,2.3-1.9,4.1-4.1,4.1s-4.1-1.9-4.1-4.1V38.6L80.1,38.5L80.1,38.5L80.1,38.5z M79.9,43.6h10.4v19.5H78.7
		C78.9,54,79.5,46.9,79.9,43.6z M78.6,68.1h11.7v3.7c0,5,4.1,9.1,9.1,9.1s9.1-4.1,9.1-9.1v-3.7h53c0.1,7.2-0.2,15.5-0.9,24.1
		c-0.3,3.2-0.7,6.3-1.1,9.2h-7.8c-7.2,0-13,5.8-13,13c0,3,1.1,5.8,2.8,8h-15.4c-0.8,0-1.7,0.1-2.5,0.2c-3.1,0.6-5.8,2.3-7.8,4.8
		c-1.8,2.2-2.8,5-2.8,8c0,4.4,2.2,8.3,5.6,10.7c0.6,0.4,1.3,0.8,1.9,1.1c-0.8,0.7-1.4,1.6-1.9,2.5c-1.2,2-2,4.3-2,6.8s0.7,4.8,2,6.8
		c1.2,2,2.9,3.6,5,4.7c0.8,0.4,1.6,0.7,2.4,1c-1,1.2-1.9,2.6-2.4,4.1c-0.5,1.4-0.8,2.9-0.8,4.5s0.3,3.1,0.8,4.5
		c1.8,5,6.6,8.5,12.2,8.5h9.2c0.3,5.7,0.7,11.4,1.1,16.5c-0.7,0.7-1.3,1.5-1.9,2.3c-0.6,0.8-1.4,1.7-2.2,2.7H98.6
		c-0.8-1-1.5-1.9-2.2-2.7c-0.7-0.9-1.5-1.8-2.3-2.6c1-13.3,1.9-29.8,1.3-41.7c-0.5-10.7-2.8-19.7-5.6-28.6c2.8-1.3,5.2-3.3,6.9-5.9
		c1.4,4.6,2.9,9.3,4.1,14.2c0.3,1.3,1.7,2.2,3,1.8c1.3-0.3,2.2-1.7,1.8-3c-1.4-5.7-3.1-11.1-4.7-16.3c0-0.1-0.1-0.2-0.1-0.2
		c-0.5-1.5-1-3.1-1.5-4.7v-0.1c0-0.2,0-0.5,0-0.7c0-3.5-1.1-6.7-3-9.3c-1.7-6.4-3-13.3-3.7-21.5c-0.1-1.4-1.3-2.4-2.7-2.3
		c0,0,0,0,0,0c-1.4,0.1-2.4,1.3-2.3,2.7c0.5,5.7,1.3,10.9,2.3,15.7c-2.1-1-4.4-1.6-6.9-1.6h-1.9c-0.8-4.1-1.4-8.5-1.8-13.4
		C78.8,83.6,78.6,75.4,78.6,68.1L78.6,68.1z M72,127.5V115c0-2.5,2-4.5,4.5-4.5h6.8c3.5,0,6.6,1.6,8.7,4.1c1.6,1.9,2.6,4.4,2.6,7.1
		c0,0.2,0,0.5,0,0.7c0,0.2,0,0.5-0.1,0.7c-0.2,1.5-0.7,3-1.5,4.3c-1.1,1.8-2.7,3.3-4.6,4.3c-1.5,0.8-3.2,1.2-4.9,1.2
		c-0.1,0-0.2,0-0.3,0h-6.8c-2.5,0-4.5-2-4.5-4.5L72,127.5L72,127.5z M77.6,184.9c5.3-5.3,5.7-13.6,1-19.2
		c-4.3-5.3-6.6-12.2-6.6-20.6v-8.2c1.4,0.7,2.9,1.1,4.5,1.1h6.8c0.6,0,1.2,0,1.8-0.1c2.7,8.7,5,17.4,5.4,27.6
		c0.5,10.4-0.2,24.6-1,36.8c-5.9-5.1-12.6-8.6-19.2-9.9L77.6,184.9L77.6,184.9z M108.8,270.3l-29.7,18l-5.4-9l19.8-12l0.3-0.2
		c6.2,1.2,11.7,2,16.2,2.4C109.9,269.6,108.8,270.3,108.8,270.3z M110.4,250.5c-2.6-3.3-6.6-8.4-10.8-13.8c-1-1.3-2.1-2.6-3.1-4
		c-0.4-0.5-0.8-1-1.2-1.5c-2.6-3.3-5.2-6.5-7.3-9.2c-0.9-1.1-1.8-2.2-2.7-3.4c-6-7.5-13-12.4-19.9-12.4c-0.3,0-0.7,0-1,0
		c-5.4,0.4-9.2,2.6-12.2,6.6c-1.6,2.1-2.5,4.7-2.7,7.4c-0.2,1.9,0,3.8,0.5,5.8c0,0.1,0,0.2,0.1,0.3c0.5,1.7,1.3,3.9,2.9,6.4
		c1.8,2.8,4.6,5.8,8.8,8.5c1.9,1.2,4,2.4,6.5,3.4c0.2,0.1,0.4,0.2,0.7,0.3c3.8,1.6,7.7,2.9,11.6,4.1c1.8,0.6,3.7,1.1,5.5,1.5
		c0.1,0,0.2,0.1,0.3,0.1c6.8,1.8,13.4,2.9,18.9,3.8c1.5,0.2,3,0.4,4.4,0.6c0.3,0,0.6,0.1,0.9,0.1v9.5l-0.3,0
		c-2.9-0.3-6.2-0.8-9.9-1.3c-2.3-0.4-4.8-0.8-7.4-1.4c-0.1,0-0.3-0.1-0.4-0.1c-4.5-0.9-9.3-2.1-14.2-3.5c-1.6-0.5-3.2-1-4.7-1.5
		c-3.1-1-6.2-2.2-9.2-3.5c-0.9-0.4-1.8-0.8-2.7-1.3c-8.5-4.2-14.8-10.1-18.4-17.1c-1-2-1.8-4.1-2.4-6.2c-0.5-1.9-0.8-3.8-0.9-5.6
		c0-0.4,0-0.7,0-1.1c0-2.1,0.2-4.2,0.6-6.2l0.1-0.4c0.5-2.2,1.3-4.2,2.4-6.1c0.5-0.8,1-1.6,1.5-2.3c3.4-4.4,8.2-7.9,13.7-9.4
		c1.9-0.5,3.8-0.8,5.7-0.9h0.3c0.6,0,1.1,0,1.7,0.1c7.9,0.5,16.2,4.8,23.1,11.9c1.1,1.1,2.2,2.3,3.2,3.5c0.1,0.1,0.2,0.3,0.4,0.4
		c0.3,0.4,0.7,0.9,1.1,1.3c0.8,1,1.7,2.1,2.6,3.2c2.1,2.6,4.4,5.6,6.9,8.7c0.1,0.1,0.1,0.2,0.2,0.3l2.9,3.7c0.3,0.4,0.7,0.9,1,1.3
		c1.1,1.4,2.1,2.7,3.2,4L110.4,250.5L110.4,250.5z M96,240.3c2.5,3.1,4.9,6.2,6.9,8.8c-3.9-0.6-8.3-1.5-13-2.6L96,240.3L96,240.3z
		 M84.3,245c-4.8-1.3-9.6-2.9-14.3-4.9c-2.1-0.9-3.9-1.8-5.4-2.8c-3.9-2.5-6.3-5.1-7.8-7.5c-1.1-1.8-1.7-3.4-2-4.6
		c-0.9-3.5-0.5-6.9,1.3-9.2c2.3-3,4.8-4.4,8.6-4.7c0.2,0,0.4,0,0.7,0c4.9,0,10.6,3.7,16,10.5c2.8,3.5,7.2,9,11.6,14.6L84.3,245
		L84.3,245z M125,233.6v35.2h-9.7v-2.6l0.1,0l-0.1,0v-34.8h9.7V233.6L125,233.6z M109.8,226.2h-0.2c-1-1.3-2-2.6-3-3.9
		c-1.4-1.7-2.7-3.4-4-5.1H138c-2.2,2.8-4.6,5.9-7.1,8.9H109.8L109.8,226.2z M166.8,279.4l-5.4,9l-29.8-18l-1.1-0.7
		c4.4-0.5,10-1.2,16.2-2.4l0.2,0.1L166.8,279.4L166.8,279.4z M199.8,228.8c-0.5,1.9-1.2,3.8-2.1,5.6c-3.6,7.4-10.3,13.6-19.3,17.9
		c-0.7,0.3-1.4,0.7-2.2,1c-9.4,4-19.5,6.7-28.5,8.5c0,0-0.1,0-0.1,0c-2.5,0.5-5,1-7.3,1.3c-3.6,0.6-6.9,1-9.8,1.3
		c-0.1,0-0.3,0-0.4,0v-9.5c0.3,0,0.6-0.1,1-0.1c1.4-0.2,2.8-0.4,4.4-0.6c5.4-0.8,11.9-1.9,18.6-3.6c6.1-1.6,12.5-3.6,18.5-6.1
		c2.2-0.9,4.1-2,5.9-3c4.9-3.1,7.9-6.5,9.8-9.6c1.3-2.2,2.1-4.2,2.5-5.7c0.6-2.1,0.7-4.3,0.5-6.3c-0.3-2.7-1.1-5.2-2.7-7.2
		c-3-4-6.9-6.2-12.2-6.6c-0.3,0-0.7,0-1,0c-6.9,0-13.9,4.9-19.9,12.4c-0.9,1.1-1.9,2.4-3,3.8c-2.1,2.6-4.5,5.7-7,8.8
		c-5.1,6.5-10.2,13-15.3,19.5v-15.3c1.1-1.4,2.2-2.8,3.3-4.2c1.3-1.7,2.6-3.3,3.9-5c2.5-3.2,4.9-6.3,7.1-8.9c0.8-1,1.6-2,2.3-2.8
		c0.5-0.6,0.9-1.2,1.4-1.7c0.1-0.1,0.2-0.3,0.4-0.4c0.9-1.1,1.9-2.2,2.9-3.2c7.5-7.8,16.6-12.2,25.1-12.2h0.3
		c7.6,0.1,14.8,4.3,19.4,10.2c0.5,0.7,1,1.4,1.5,2.2c1.1,1.9,1.9,3.9,2.5,6.1c0.5,2.1,0.8,4.2,0.8,6.5
		C200.7,224.1,200.4,226.4,199.8,228.8L199.8,228.8z M137.6,249.1c6.5-8.3,16.5-21,21.6-27.3c5.5-6.8,11.1-10.5,16-10.5
		c0.2,0,0.4,0,0.7,0c3.7,0.3,6.3,1.7,8.6,4.7c1.8,2.3,2.2,5.7,1.3,9.2c-0.3,1.1-0.8,2.5-1.7,4c-1.5,2.6-4.1,5.7-8.7,8.5
		c-1.4,0.9-3.1,1.7-4.9,2.5C159.2,244.9,146.8,247.6,137.6,249.1L137.6,249.1z M231.3,180.3c-3.8,3.8-9.4,4.2-12.3,4.1
		c-0.1-2.9,0.3-8.5,4.1-12.3s9.4-4.2,12.3-4.1C235.4,170.9,235.1,176.5,231.3,180.3z M36.5,305.4c-6.5,1.6-13.5,4.8-18.7,7
		c-4.5,1.9-1.9,8.2,2.9,6c2.9-1.4,5.6-2.8,8.3-4.1s5.4-2.6,8.5-3.5c5.4-1.6,12.1-1.7,16,2.6c2.8,3.2,2.4,8.1-2.7,12.5
		c-4.2,3.8-10,6-17.6,7c-4.8,0.7-4.4,7.2,1.2,6.3c8.8-1.5,15.3-4.4,20.1-8.4c7.3-6.1,9.7-14.6,3.3-21.4
		C52.4,303.7,43.3,303.7,36.5,305.4L36.5,305.4z M133.4,304.6c-4.3-0.3-4.5,5.2-0.9,5.3c3.1,0.1,5.6,2.5,6.9,4.4
		c1.1,1.7,2.9,1.7,4.1,0.9c1.2-0.8,2-2.3,1.1-4.1C142.7,307.7,137.6,304.9,133.4,304.6L133.4,304.6z"/>
	<path class="st0" d="M131.1,325.1c1.3,5.7,0.5,9.2-4,10.8c-4.2,1.4-10.8,1.5-13.3-0.1c-2.2-1.4-1.8-4-0.7-6.7
		c1-2.2,2.4-4.8,3.1-6.6c0.8-2.2,0.6-4.1-0.2-5.5c0.1-1.2,0.1-2.5,0.2-3.4c0.1-2.2,0.2-4.1,0.3-6c1.7-0.5,3.4-1.2,4.6-1.9
		c3.9-2.3,0.8-7-2.3-5c-0.5,0.4-1.1,0.7-1.7,1c0.1-1.5,0.1-3,0.1-4c-0.2-4-6.8-4.3-6.3,0.3c0.1,1.3,0.5,3,0.5,5.6
		c-1.9,0.3-3.6,0.2-5-0.4c-3.6-1.4-5.3,3.8-2.1,5.1c1,0.4,3.2,1,6.7,0.6c-0.1,1.4-0.2,2.9-0.3,4.4c-0.4-0.1-0.7-0.1-1-0.2
		c-5.8-0.7-11,5.7-6.8,12.7c1,1.7,2.9,2.8,4.8,3c-1.8,5.4-0.7,9.4,3.1,11.6c4.5,2.7,13,2.6,18,1c8.2-2.8,10.2-8.4,8.4-16.9
		C136.2,319.9,130.3,321.2,131.1,325.1L131.1,325.1z M111,320.6L111,320.6c-0.1,0.4-0.2,0.7-0.3,1.1c-1.6,3.9-4.1,1.9-4.7,0.5
		c-0.8-2.2,0.4-5,3.1-4.6c0.8,0.1,1.3,0.5,1.6,1.2l0.1,0.1C111,319.4,111.1,320,111,320.6L111,320.6z M203.6,337.7
		c-3.7,0.7-7.1,0.2-9.7-0.9c-2.8-1.1-4-4.3-0.9-5.8c4.2-2,12.7-0.8,15.8,1c2.7,1.5,5.6,1,6.1-2.1c0.7-3.4-1.7-8.2-3.9-10.9
		c-0.4-0.6-0.9-1.1-1.3-1.7c1.9-0.7,3.5-1.3,4.7-2c3.4-1.7,0.8-7.2-3.4-4.8c-1.1,0.6-2.6,1.2-4.5,1.9c-1-1.6-1.8-3.3-2.6-5
		c1.9-0.6,3.4-1.2,4.8-1.9c3.2-1.5,0.9-6.8-3.1-4.7c-1,0.5-2.3,1.1-3.8,1.6c-1.5-3.6-2.9-7.1-4.3-9c-2.1-2.9-8.5-0.7-5.1,3.1
		c1.7,1.9,3,4.5,4.3,7.2c-2.3,0.4-4.8,0.5-7.4,0.4c-4.8-0.4-3.6,5.4,0.3,5.4c3.4,0,6.6-0.4,9.5-1c1,1.9,1.9,3.6,2.8,5.1
		c-3.4,0.8-7.2,1.2-10.3,0.8c-5.1-0.7-4.5,5.4-0.4,5.7c4.4,0.3,9.4-0.4,13.7-1.6c0.4,0.7,0.9,1.2,1.3,1.8c3.5,4.7,2.5,5.6-0.7,5.1
		c-3.9-0.5-11.3-1-15.7,1.3c-6.7,3.4-5,11.8,2,14.8c3.5,1.5,7.4,2.4,11.8,2C209.3,343.4,208.9,336.7,203.6,337.7L203.6,337.7z
		 M210.8,299.5c1.1,0.7,3.6,3.3,4.2,4.4c1.6,2.6,5.6-0.4,3.7-3.2c-1.1-1.6-3.8-3.8-5.3-4.6C210.9,294.6,208,297.7,210.8,299.5
		L210.8,299.5z M219.6,292c-2.6-1.4-5.4,1.8-2.6,3.5c1.1,0.7,3.7,3.2,4.4,4.2c1.6,2.6,5.6-0.5,3.6-3.3
		C223.8,294.8,221,292.7,219.6,292L219.6,292z M33.8,362.4l-14.6,0c-0.4,0-0.5,0-0.5,0.1v0.6c0,0.1,0.2,0.1,0.5,0.1l14.6,0
		c0.4,0,0.5,0,0.5-0.1v-0.6C34.3,362.4,34.1,362.4,33.8,362.4z M45.5,358.3h-4.6c-0.2,0-0.3,0-0.3,0.1c-0.1,0.1-0.1,0.2-0.1,0.3
		c0,0.1,0,0.2,0.1,0.3s0.2,0.1,0.3,0.1h1.7c0,0,0.1,0,0.1,0.1v6c0,0.2,0,0.3,0.1,0.4c0.1,0.1,0.2,0.1,0.4,0.1s0.3,0,0.4-0.1
		c0.1-0.1,0.1-0.2,0.1-0.4v-6c0,0,0-0.1,0.1-0.1h1.7c0.2,0,0.3,0,0.3-0.1s0.1-0.2,0.1-0.3s0-0.2-0.1-0.3S45.6,358.3,45.5,358.3
		L45.5,358.3z M50.1,360.4c-0.4,0-0.7,0.1-0.9,0.2s-0.4,0.3-0.6,0.5h0v-2.4c0-0.1,0-0.3-0.1-0.4c-0.1-0.1-0.2-0.1-0.3-0.1
		s-0.2,0-0.3,0.1s-0.1,0.2-0.1,0.4v6.6c0,0.1,0,0.3,0.1,0.4s0.2,0.1,0.3,0.1s0.2,0,0.3-0.1s0.1-0.2,0.1-0.4v-2.8
		c0-0.4,0.1-0.7,0.3-0.9s0.5-0.4,0.9-0.4c0.4,0,0.7,0.1,0.9,0.4c0.2,0.2,0.3,0.6,0.3,1v2.8c0,0.1,0,0.3,0.1,0.4s0.2,0.1,0.3,0.1
		s0.2,0,0.3-0.1s0.1-0.2,0.1-0.4v-3c0-0.6-0.2-1.1-0.5-1.4C51.2,360.6,50.7,360.4,50.1,360.4L50.1,360.4z M57.5,360.8
		c-0.4-0.2-0.8-0.4-1.3-0.4c-0.5,0-0.9,0.1-1.3,0.4s-0.6,0.6-0.8,1c-0.1,0.2-0.1,0.4-0.1,0.6c0,0.2,0,0.5,0,0.8s0,0.6,0,0.8
		c0,0.2,0.1,0.4,0.1,0.6c0.2,0.5,0.4,0.8,0.8,1.1c0.4,0.2,0.8,0.4,1.4,0.4c0.4,0,0.8-0.1,1.1-0.2c0.3-0.1,0.6-0.3,0.8-0.5
		c0.1-0.1,0.1-0.2,0.1-0.3c0-0.1,0-0.2-0.1-0.3s-0.2-0.1-0.3-0.1s-0.2,0-0.3,0.1c-0.2,0.1-0.4,0.3-0.6,0.3c-0.2,0.1-0.4,0.1-0.7,0.1
		c-0.3,0-0.6-0.1-0.8-0.2s-0.4-0.4-0.5-0.7c0-0.1-0.1-0.2-0.1-0.3c0-0.1,0-0.2,0-0.3c0,0,0-0.1,0.1-0.1H58c0.1,0,0.2,0,0.3-0.1
		s0.1-0.1,0.1-0.2c0-0.5-0.1-0.9-0.2-1.3C58.1,361.4,57.8,361,57.5,360.8L57.5,360.8z M57.4,362.7H55c0,0-0.1,0-0.1-0.1
		c0-0.2,0-0.4,0.1-0.6c0.1-0.3,0.2-0.5,0.5-0.6c0.2-0.1,0.5-0.2,0.8-0.2s0.6,0.1,0.8,0.2c0.2,0.1,0.4,0.4,0.4,0.6
		C57.4,362.2,57.5,362.4,57.4,362.7C57.5,362.7,57.4,362.7,57.4,362.7L57.4,362.7z M67.9,361.8c-0.1-0.4-0.4-0.7-0.7-1
		s-0.7-0.4-1.1-0.4c-0.4,0-0.7,0.1-0.9,0.2c-0.2,0.1-0.4,0.3-0.5,0.5h0v-2.4c0-0.1,0-0.3-0.1-0.4s-0.2-0.1-0.3-0.1s-0.2,0-0.3,0.1
		s-0.1,0.2-0.1,0.4v6.6c0,0.1,0,0.3,0.1,0.4s0.2,0.1,0.3,0.1c0.1,0,0.2,0,0.3-0.1c0.1-0.1,0.1-0.2,0.1-0.4v-0.1h0
		c0.1,0.2,0.3,0.4,0.5,0.5s0.6,0.2,0.9,0.2c0.4,0,0.8-0.1,1.1-0.3s0.5-0.5,0.7-1c0.1-0.2,0.1-0.4,0.1-0.6c0-0.2,0-0.5,0.1-0.8
		c0-0.3,0-0.6,0-0.8S68,362,67.9,361.8L67.9,361.8z M67.1,363.8c0,0.2-0.1,0.3-0.1,0.5c-0.1,0.3-0.2,0.5-0.4,0.6
		c-0.2,0.1-0.4,0.2-0.7,0.2c-0.3,0-0.6-0.1-0.7-0.2c-0.2-0.1-0.3-0.4-0.4-0.6c-0.1-0.1-0.1-0.3-0.1-0.5c0-0.2,0-0.4,0-0.6
		s0-0.4,0-0.6c0-0.2,0.1-0.3,0.1-0.5c0.1-0.3,0.2-0.5,0.4-0.6c0.2-0.1,0.4-0.2,0.7-0.2c0.3,0,0.5,0.1,0.7,0.2
		c0.2,0.1,0.3,0.4,0.4,0.6c0.1,0.1,0.1,0.3,0.1,0.5c0,0.2,0,0.4,0,0.6S67.1,363.7,67.1,363.8L67.1,363.8z M73.4,360.8
		c-0.4-0.2-0.8-0.4-1.3-0.4c-0.5,0-0.9,0.1-1.3,0.4s-0.6,0.6-0.8,1c-0.1,0.2-0.1,0.4-0.1,0.6c0,0.2,0,0.5,0,0.8s0,0.6,0,0.8
		c0,0.2,0.1,0.4,0.1,0.6c0.2,0.5,0.4,0.8,0.8,1.1c0.4,0.2,0.8,0.4,1.4,0.4c0.4,0,0.8-0.1,1.1-0.2c0.3-0.1,0.6-0.3,0.8-0.5
		c0.1-0.1,0.1-0.2,0.1-0.3c0-0.1,0-0.2-0.1-0.3c-0.1-0.1-0.2-0.1-0.3-0.1c-0.1,0-0.2,0-0.3,0.1c-0.2,0.1-0.4,0.3-0.6,0.3
		c-0.2,0.1-0.4,0.1-0.7,0.1c-0.3,0-0.6-0.1-0.8-0.2c-0.2-0.1-0.4-0.4-0.5-0.7c0-0.1-0.1-0.2-0.1-0.3c0-0.1,0-0.2,0-0.3
		c0,0,0-0.1,0.1-0.1H74c0.1,0,0.2,0,0.3-0.1s0.1-0.1,0.1-0.2c0-0.5-0.1-0.9-0.2-1.3C74,361.4,73.7,361.1,73.4,360.8L73.4,360.8z
		 M73.3,362.8h-2.4c0,0-0.1,0-0.1-0.1c0-0.2,0-0.4,0.1-0.6c0.1-0.3,0.2-0.5,0.4-0.6c0.2-0.1,0.5-0.2,0.8-0.2c0.3,0,0.6,0.1,0.8,0.2
		s0.4,0.4,0.4,0.6C73.4,362.3,73.4,362.5,73.3,362.8C73.4,362.7,73.4,362.8,73.3,362.8L73.3,362.8z M78.7,362.8l-0.6-0.1
		c-0.4,0-0.7-0.1-0.8-0.2c-0.2-0.1-0.2-0.3-0.2-0.5s0.1-0.4,0.2-0.5c0.2-0.1,0.4-0.2,0.8-0.2c0.2,0,0.4,0,0.6,0.1s0.4,0.1,0.6,0.2
		c0.1,0.1,0.2,0.1,0.3,0.1c0.1,0,0.2,0,0.3-0.1s0.1-0.2,0.1-0.3c0-0.2-0.1-0.3-0.3-0.4c-0.2-0.1-0.4-0.2-0.7-0.3s-0.6-0.1-0.9-0.1
		c-0.6,0-1.1,0.1-1.4,0.4c-0.3,0.3-0.5,0.7-0.5,1.2c0,0.4,0.1,0.8,0.4,1c0.3,0.2,0.7,0.4,1.2,0.5l0.6,0.1c0.4,0,0.7,0.1,0.8,0.2
		s0.2,0.3,0.2,0.5c0,0.2-0.1,0.4-0.3,0.6c-0.2,0.1-0.5,0.2-0.9,0.2c-0.3,0-0.6,0-0.8-0.1c-0.2-0.1-0.5-0.2-0.7-0.3
		c-0.1,0-0.1-0.1-0.2-0.1s-0.1,0-0.1,0c-0.1,0-0.2,0-0.3,0.1c-0.1,0.1-0.1,0.2-0.1,0.3c0,0.1,0.1,0.3,0.2,0.4
		c0.2,0.2,0.5,0.3,0.8,0.4s0.7,0.2,1.1,0.2c0.7,0,1.2-0.1,1.6-0.5s0.6-0.7,0.6-1.2c0-0.4-0.1-0.8-0.4-1S79.3,362.8,78.7,362.8
		L78.7,362.8z M83.5,361.4h0.7c0.1,0,0.2,0,0.3-0.1s0.1-0.2,0.1-0.3s0-0.2-0.1-0.3s-0.2-0.1-0.3-0.1h-0.7c0,0-0.1,0-0.1-0.1v-1.2
		c0-0.1,0-0.3-0.1-0.4c-0.1-0.1-0.2-0.1-0.3-0.1c-0.1,0-0.2,0-0.3,0.1c-0.1,0.1-0.1,0.2-0.1,0.4v1.2c0,0,0,0.1-0.1,0.1h-0.3
		c-0.1,0-0.2,0-0.3,0.1s-0.1,0.2-0.1,0.3s0,0.2,0.1,0.3c0.1,0.1,0.2,0.1,0.3,0.1h0.3c0,0,0.1,0,0.1,0.1v3c0,0.5,0.1,1,0.3,1.2
		s0.6,0.4,1.1,0.4h0.1c0.2,0,0.3,0,0.4-0.1s0.1-0.2,0.1-0.3s0-0.2-0.1-0.3c-0.1-0.1-0.2-0.1-0.3-0.1c-0.3,0-0.5,0-0.6-0.2
		c-0.1-0.1-0.1-0.3-0.1-0.6L83.5,361.4C83.4,361.4,83.4,361.4,83.5,361.4L83.5,361.4z M93.9,361.8c-0.1-0.4-0.4-0.7-0.7-1
		s-0.7-0.4-1.1-0.4c-0.4,0-0.7,0.1-0.9,0.2s-0.4,0.3-0.5,0.5h0v-0.1c0-0.1,0-0.3-0.1-0.4c-0.1-0.1-0.2-0.1-0.3-0.1
		c-0.1,0-0.2,0-0.3,0.1c-0.1,0.1-0.1,0.2-0.1,0.4v6.4c0,0.1,0,0.3,0.1,0.4c0.1,0.1,0.2,0.1,0.3,0.1s0.2,0,0.3-0.1
		c0.1-0.1,0.1-0.2,0.1-0.4v-2.1h0c0.1,0.2,0.3,0.4,0.5,0.5c0.2,0.1,0.6,0.2,0.9,0.2c0.4,0,0.8-0.1,1.1-0.3s0.5-0.5,0.7-1
		c0.1-0.2,0.1-0.4,0.1-0.6c0-0.2,0-0.5,0.1-0.8c0-0.3,0-0.6,0-0.8S94,362.1,93.9,361.8L93.9,361.8z M93.1,363.9
		c0,0.2-0.1,0.3-0.1,0.5c-0.1,0.3-0.2,0.5-0.4,0.6c-0.2,0.1-0.4,0.2-0.7,0.2c-0.3,0-0.6-0.1-0.7-0.2c-0.2-0.1-0.3-0.4-0.4-0.6
		c-0.1-0.1-0.1-0.3-0.1-0.5c0-0.2,0-0.4,0-0.6c0-0.2,0-0.4,0-0.6c0-0.2,0.1-0.3,0.1-0.5c0.1-0.3,0.2-0.5,0.4-0.6
		c0.2-0.1,0.4-0.2,0.7-0.2c0.3,0,0.5,0.1,0.7,0.2c0.2,0.1,0.3,0.4,0.4,0.6c0.1,0.1,0.1,0.3,0.1,0.5c0,0.2,0,0.4,0,0.6
		C93.1,363.5,93.1,363.7,93.1,363.9L93.1,363.9z M97.5,365.1c-0.2,0-0.3,0-0.4-0.1c-0.1-0.1-0.1-0.2-0.1-0.5v-5.6
		c0-0.1,0-0.3-0.1-0.4c-0.1-0.1-0.2-0.1-0.3-0.1c-0.1,0-0.2,0-0.3,0.1c-0.1,0.1-0.1,0.2-0.1,0.4v5.7c0,0.5,0.1,0.8,0.3,1.1
		c0.2,0.2,0.5,0.4,1,0.4h0.1c0.2,0,0.3,0,0.3-0.1s0.1-0.2,0.1-0.3c0-0.1,0-0.2-0.1-0.3C97.7,365.1,97.6,365.1,97.5,365.1z
		 M103.9,364.9c0-0.1-0.1-0.2-0.1-0.2c0-0.1,0-0.2,0-0.3v-1.9c0-0.6-0.2-1.1-0.5-1.5c-0.3-0.3-0.9-0.5-1.6-0.5c-0.4,0-0.7,0-0.9,0.1
		c-0.3,0.1-0.5,0.2-0.7,0.3c-0.1,0-0.1,0.1-0.2,0.2c0,0.1-0.1,0.1-0.1,0.2c0,0.1,0,0.2,0.1,0.3s0.2,0.1,0.3,0.1c0.1,0,0.2,0,0.3-0.1
		c0.1-0.1,0.3-0.1,0.5-0.2c0.2,0,0.4-0.1,0.6-0.1c0.5,0,0.8,0.1,1,0.3c0.2,0.2,0.3,0.5,0.3,0.9v0.2c0,0,0,0.1-0.1,0.1h-1.2
		c-0.7,0-1.2,0.1-1.5,0.4c-0.4,0.3-0.5,0.7-0.5,1.2c0,0.5,0.2,0.9,0.5,1.2c0.3,0.3,0.8,0.4,1.4,0.4c0.4,0,0.7,0,1-0.2
		s0.5-0.3,0.7-0.5h0l0.2,0.3c0.1,0.1,0.2,0.2,0.4,0.2c0.1,0,0.2,0,0.3-0.1s0.1-0.2,0.1-0.3c0-0.1,0-0.2-0.1-0.3L103.9,364.9
		L103.9,364.9z M102.9,364.2c0,0.3-0.1,0.6-0.4,0.8c-0.2,0.2-0.6,0.3-1,0.3c-0.3,0-0.6-0.1-0.8-0.2c-0.2-0.1-0.3-0.3-0.3-0.6
		c0-0.3,0.1-0.5,0.3-0.6s0.5-0.2,1-0.2h1.1c0,0,0.1,0,0.1,0.1L102.9,364.2L102.9,364.2z M106.8,362.2c0.1-0.3,0.2-0.5,0.4-0.6
		c0.2-0.1,0.4-0.2,0.7-0.2c0.2,0,0.4,0,0.6,0.1s0.3,0.2,0.4,0.3c0.1,0.1,0.1,0.1,0.2,0.2s0.1,0.1,0.2,0.1c0.1,0,0.2,0,0.3-0.1
		s0.1-0.2,0.1-0.3c0-0.1,0-0.2-0.1-0.3c-0.2-0.2-0.4-0.4-0.7-0.5c-0.3-0.1-0.6-0.2-1-0.2c-0.5,0-0.9,0.1-1.3,0.4
		c-0.4,0.2-0.6,0.6-0.8,1c-0.1,0.2-0.1,0.4-0.1,0.6c0,0.2,0,0.5,0,0.8c0,0.3,0,0.6,0,0.8s0.1,0.4,0.1,0.6c0.2,0.5,0.4,0.8,0.8,1.1
		s0.8,0.4,1.3,0.4c0.4,0,0.7-0.1,1-0.2s0.5-0.3,0.7-0.5c0.1-0.1,0.1-0.2,0.1-0.3c0-0.1,0-0.2-0.1-0.3c-0.1-0.1-0.2-0.1-0.3-0.1
		c-0.1,0-0.2,0-0.2,0.1s-0.1,0.1-0.2,0.2c-0.1,0.1-0.3,0.2-0.4,0.3c-0.2,0.1-0.3,0.1-0.6,0.1c-0.3,0-0.5-0.1-0.7-0.2
		c-0.2-0.1-0.3-0.3-0.4-0.6c0-0.1-0.1-0.3-0.1-0.5c0-0.2,0-0.4,0-0.6c0-0.2,0-0.4,0-0.6S106.8,362.4,106.8,362.2L106.8,362.2z
		 M115,360.9c-0.3-0.2-0.8-0.4-1.3-0.4c-0.5,0-0.9,0.1-1.3,0.4s-0.6,0.6-0.8,1c-0.1,0.2-0.1,0.4-0.1,0.6c0,0.2,0,0.5,0,0.8
		s0,0.6,0,0.8c0,0.2,0.1,0.4,0.1,0.6c0.2,0.5,0.4,0.8,0.8,1.1c0.4,0.2,0.8,0.4,1.4,0.4c0.4,0,0.8-0.1,1.1-0.2
		c0.3-0.1,0.6-0.3,0.8-0.5c0.1-0.1,0.1-0.2,0.1-0.3c0-0.1,0-0.2-0.1-0.3c-0.1-0.1-0.2-0.1-0.3-0.1c-0.1,0-0.2,0-0.3,0.1
		c-0.2,0.1-0.4,0.3-0.6,0.3c-0.2,0.1-0.4,0.1-0.7,0.1c-0.3,0-0.6-0.1-0.8-0.2s-0.4-0.4-0.5-0.7c0-0.1-0.1-0.2-0.1-0.3
		c0-0.1,0-0.2,0-0.3c0,0,0-0.1,0.1-0.1h3.1c0.1,0,0.2,0,0.3-0.1c0.1-0.1,0.1-0.1,0.1-0.2c0-0.5-0.1-0.9-0.2-1.3
		C115.6,361.5,115.4,361.1,115,360.9L115,360.9z M114.9,362.9h-2.4c0,0-0.1,0-0.1-0.1c0-0.2,0-0.4,0.1-0.6c0.1-0.3,0.2-0.5,0.4-0.6
		c0.2-0.1,0.5-0.2,0.8-0.2s0.6,0.1,0.8,0.2c0.2,0.1,0.4,0.4,0.4,0.6C114.9,362.4,115,362.6,114.9,362.9
		C115,362.8,115,362.9,114.9,362.9L114.9,362.9z M122.3,359.7c0-0.1,0.1-0.2,0.1-0.2s0.1-0.1,0.2-0.1s0.2,0,0.4,0
		c0.2,0,0.3,0,0.3-0.1c0.1-0.1,0.1-0.2,0.1-0.3s0-0.2-0.1-0.3s-0.2-0.1-0.4-0.1H123c-0.6,0-1,0.1-1.2,0.4s-0.4,0.7-0.4,1.3v0.5
		c0,0,0,0.1-0.1,0.1H121c-0.1,0-0.2,0-0.3,0.1s-0.1,0.2-0.1,0.3s0,0.2,0.1,0.3s0.2,0.1,0.3,0.1h0.3c0,0,0.1,0,0.1,0.1v4
		c0,0.1,0,0.3,0.1,0.4s0.2,0.1,0.3,0.1s0.2,0,0.3-0.1c0.1-0.1,0.1-0.2,0.1-0.4v-4c0,0,0-0.1,0.1-0.1h0.8c0.1,0,0.2,0,0.3-0.1
		s0.1-0.2,0.1-0.3s0-0.2-0.1-0.3s-0.2-0.1-0.3-0.1h-0.8c0,0-0.1,0-0.1-0.1v-0.5C122.3,359.9,122.3,359.8,122.3,359.7L122.3,359.7z
		 M129.2,362c-0.1-0.5-0.4-0.8-0.8-1c-0.4-0.2-0.8-0.4-1.3-0.4s-0.9,0.1-1.3,0.4c-0.4,0.2-0.6,0.6-0.8,1c-0.1,0.2-0.1,0.4-0.1,0.6
		s0,0.5-0.1,0.8c0,0.3,0,0.6,0,0.8s0.1,0.4,0.1,0.6c0.2,0.5,0.4,0.8,0.8,1s0.8,0.4,1.3,0.4s0.9-0.1,1.3-0.4s0.6-0.6,0.8-1
		c0.1-0.2,0.1-0.4,0.1-0.6c0-0.2,0-0.5,0-0.8c0-0.3,0-0.6,0-0.8S129.3,362.2,129.2,362L129.2,362z M128.4,363.9
		c0,0.2-0.1,0.3-0.1,0.5c-0.1,0.3-0.2,0.5-0.4,0.6c-0.2,0.1-0.5,0.2-0.8,0.2s-0.5-0.1-0.8-0.2c-0.2-0.1-0.3-0.4-0.4-0.6
		c0-0.1-0.1-0.3-0.1-0.5s0-0.4,0-0.6s0-0.5,0-0.6c0-0.1,0.1-0.3,0.1-0.5c0.1-0.3,0.2-0.5,0.4-0.6c0.2-0.1,0.5-0.2,0.8-0.2
		s0.5,0.1,0.8,0.2c0.2,0.1,0.4,0.4,0.4,0.6c0,0.1,0.1,0.3,0.1,0.5c0,0.1,0,0.4,0,0.6S128.4,363.8,128.4,363.9z M134.5,360.8
		c-0.1,0-0.2-0.1-0.3-0.1c-0.1,0-0.3,0-0.5-0.1c-0.3,0-0.6,0.1-0.8,0.2s-0.4,0.3-0.5,0.6h0v-0.2c0-0.1,0-0.3-0.1-0.4
		c-0.1-0.1-0.2-0.1-0.3-0.1c-0.1,0-0.2,0-0.3,0.1s-0.1,0.2-0.1,0.4v4.4c0,0.1,0,0.3,0.1,0.4s0.2,0.1,0.3,0.1s0.2,0,0.3-0.1
		s0.1-0.2,0.1-0.4V363c0-0.4,0.1-0.8,0.3-1.1s0.5-0.4,0.9-0.4c0.1,0,0.2,0,0.3,0c0.1,0,0.2,0.1,0.3,0.1c0.1,0,0.2,0.1,0.2,0.1
		c0.1,0,0.2,0,0.3-0.1s0.1-0.2,0.1-0.3C134.8,361,134.7,360.9,134.5,360.8L134.5,360.8z M140.4,362.3c0.1-0.3,0.2-0.5,0.4-0.6
		c0.2-0.1,0.4-0.2,0.7-0.2c0.2,0,0.4,0,0.6,0.1c0.1,0.1,0.3,0.2,0.4,0.3c0.1,0.1,0.1,0.1,0.2,0.2s0.1,0.1,0.2,0.1
		c0.1,0,0.2,0,0.3-0.1s0.1-0.2,0.1-0.3c0-0.1,0-0.2-0.1-0.3c-0.2-0.2-0.4-0.4-0.7-0.5c-0.3-0.1-0.6-0.2-1-0.2
		c-0.5,0-0.9,0.1-1.3,0.4s-0.6,0.6-0.8,1c-0.1,0.2-0.1,0.4-0.1,0.6s0,0.5-0.1,0.8c0,0.3,0,0.6,0,0.8s0.1,0.4,0.1,0.6
		c0.1,0.5,0.4,0.8,0.8,1.1c0.4,0.2,0.8,0.4,1.3,0.4c0.4,0,0.7-0.1,1-0.2s0.5-0.3,0.7-0.5c0.1-0.1,0.1-0.2,0.1-0.3
		c0-0.1,0-0.2-0.1-0.3c-0.1-0.1-0.2-0.1-0.3-0.1c-0.1,0-0.1,0-0.2,0.1s-0.1,0.1-0.2,0.2c-0.1,0.1-0.3,0.2-0.4,0.3
		c-0.1,0.1-0.4,0.1-0.6,0.1c-0.3,0-0.5-0.1-0.7-0.2c-0.2-0.1-0.4-0.3-0.4-0.6c0-0.1-0.1-0.3-0.1-0.5c0-0.2,0-0.4,0-0.6
		c0-0.2,0-0.4,0-0.6C140.3,362.6,140.4,362.4,140.4,362.3L140.4,362.3z M148.4,360.8c-0.1,0-0.2-0.1-0.3-0.1c-0.1,0-0.3-0.1-0.5,0
		c-0.3,0-0.6,0.1-0.8,0.2s-0.4,0.3-0.5,0.6h0v-0.2c0-0.1,0-0.3-0.1-0.4c-0.1-0.1-0.2-0.1-0.3-0.1s-0.2,0-0.3,0.1s-0.1,0.2-0.1,0.4
		v4.4c0,0.1,0,0.3,0.1,0.4s0.2,0.1,0.3,0.1s0.2,0,0.3-0.1s0.1-0.2,0.1-0.4V363c0-0.4,0.1-0.8,0.3-1.1c0.2-0.3,0.5-0.4,0.9-0.4
		c0.1,0,0.2,0,0.3,0c0.1,0,0.2,0.1,0.3,0.1c0.1,0,0.2,0.1,0.2,0.1c0.1,0,0.2,0,0.3-0.1s0.1-0.2,0.1-0.3
		C148.7,361,148.6,360.9,148.4,360.8L148.4,360.8z M154.4,365c0-0.1-0.1-0.2-0.1-0.2c0-0.1,0-0.2,0-0.3v-1.9c0-0.6-0.2-1.1-0.5-1.5
		s-0.9-0.5-1.6-0.5c-0.4,0-0.7,0-0.9,0.1s-0.5,0.2-0.7,0.3c-0.1,0-0.1,0.1-0.2,0.2c0,0.1-0.1,0.1-0.1,0.2c0,0.1,0,0.2,0.1,0.3
		s0.2,0.1,0.3,0.1c0.1,0,0.2,0,0.3-0.1c0.1-0.1,0.3-0.1,0.5-0.2c0.2,0,0.4-0.1,0.6-0.1c0.5,0,0.8,0.1,1,0.3c0.2,0.2,0.3,0.5,0.3,0.9
		v0.2c0,0,0,0.1-0.1,0.1h-1.2c-0.7,0-1.2,0.1-1.5,0.4c-0.4,0.3-0.5,0.7-0.5,1.2c0,0.5,0.2,0.9,0.5,1.2c0.3,0.3,0.8,0.4,1.4,0.4
		c0.4,0,0.7,0,1-0.2s0.5-0.3,0.6-0.5h0l0.2,0.3c0.1,0.1,0.2,0.2,0.4,0.2c0.1,0,0.2,0,0.3-0.1s0.1-0.2,0.1-0.3c0-0.1,0-0.2-0.1-0.3
		L154.4,365L154.4,365z M153.4,364.3c0,0.3-0.1,0.6-0.4,0.8c-0.2,0.2-0.6,0.3-1,0.3c-0.4,0-0.6-0.1-0.8-0.2
		c-0.2-0.1-0.3-0.3-0.3-0.6c0-0.3,0.1-0.5,0.3-0.6c0.2-0.1,0.5-0.2,1-0.2h1.1c0,0,0.1,0,0.1,0.1L153.4,364.3L153.4,364.3z
		 M157.7,359.8c0-0.1,0.1-0.2,0.1-0.2s0.1-0.1,0.2-0.1s0.2,0,0.4,0c0.1,0,0.3,0,0.3-0.1s0.1-0.2,0.1-0.3c0-0.1,0-0.2-0.1-0.3
		c-0.1-0.1-0.2-0.1-0.4-0.1h-0.1c-0.6,0-1,0.1-1.2,0.4s-0.4,0.7-0.4,1.3v0.5c0,0,0,0.1-0.1,0.1h-0.3c-0.1,0-0.2,0-0.3,0.1
		c-0.1,0.1-0.1,0.2-0.1,0.3s0,0.2,0.1,0.3s0.2,0.1,0.3,0.1h0.3c0,0,0.1,0,0.1,0.1v4c0,0.1,0,0.3,0.1,0.4c0.1,0.1,0.2,0.1,0.3,0.1
		s0.2,0,0.3-0.1s0.1-0.2,0.1-0.4v-4c0,0,0-0.1,0.1-0.1h0.8c0.1,0,0.2,0,0.3-0.1c0.1-0.1,0.1-0.2,0.1-0.3s0-0.2-0.1-0.3
		c-0.1-0.1-0.2-0.1-0.3-0.1h-0.8c0,0-0.1,0-0.1-0.1v-0.5C157.7,360,157.7,359.9,157.7,359.8z M162.1,361.5h0.7c0.1,0,0.2,0,0.3-0.1
		c0.1-0.1,0.1-0.2,0.1-0.3s0-0.2-0.1-0.3c-0.1-0.1-0.2-0.1-0.3-0.1h-0.7c0,0-0.1,0-0.1-0.1v-1.2c0-0.1,0-0.3-0.1-0.4
		c-0.1-0.1-0.2-0.1-0.3-0.1s-0.2,0-0.3,0.1s-0.1,0.2-0.1,0.4v1.2c0,0,0,0.1-0.1,0.1h-0.3c-0.1,0-0.2,0-0.3,0.1
		c-0.1,0.1-0.1,0.2-0.1,0.3s0,0.2,0.1,0.3c0.1,0.1,0.2,0.1,0.3,0.1h0.3c0,0,0.1,0,0.1,0.1v3c0,0.5,0.1,1,0.3,1.2s0.6,0.4,1.1,0.4
		h0.1c0.2,0,0.3,0,0.4-0.1s0.1-0.2,0.1-0.3s0-0.2-0.1-0.3c-0.1-0.1-0.2-0.1-0.3-0.1c-0.3,0-0.5,0-0.6-0.2c-0.1-0.1-0.1-0.3-0.1-0.6
		L162.1,361.5C162,361.6,162.1,361.5,162.1,361.5L162.1,361.5z M172.5,362c-0.1-0.4-0.4-0.7-0.7-1s-0.7-0.4-1.1-0.4
		c-0.4,0-0.7,0.1-0.9,0.2c-0.2,0.1-0.4,0.3-0.6,0.5h0V359c0-0.1,0-0.3-0.1-0.4s-0.2-0.1-0.3-0.1s-0.2,0-0.3,0.1s-0.1,0.2-0.1,0.4
		v6.6c0,0.1,0,0.3,0.1,0.4s0.2,0.1,0.3,0.1s0.2,0,0.3-0.1s0.1-0.2,0.1-0.4v-0.1h0c0.1,0.2,0.3,0.4,0.5,0.5c0.2,0.1,0.6,0.2,0.9,0.2
		c0.4,0,0.8-0.1,1.1-0.3s0.5-0.5,0.7-1c0.1-0.2,0.1-0.4,0.1-0.6s0-0.5,0-0.8c0-0.3,0-0.6,0-0.8S172.6,362.2,172.5,362L172.5,362z
		 M171.7,364c0,0.2-0.1,0.3-0.1,0.5c-0.1,0.3-0.2,0.5-0.4,0.6c-0.2,0.1-0.4,0.2-0.7,0.2c-0.3,0-0.6-0.1-0.7-0.2
		c-0.2-0.1-0.3-0.4-0.4-0.6c-0.1-0.1-0.1-0.3-0.1-0.5s0-0.4,0-0.6c0-0.2,0-0.4,0-0.6c0-0.2,0.1-0.3,0.1-0.5c0.1-0.3,0.2-0.5,0.4-0.6
		c0.2-0.1,0.4-0.2,0.7-0.2c0.3,0,0.5,0.1,0.7,0.2c0.2,0.1,0.3,0.4,0.4,0.6c0.1,0.1,0.1,0.3,0.1,0.5c0,0.2,0,0.4,0,0.6
		C171.7,363.6,171.7,363.9,171.7,364L171.7,364z M178,361c-0.4-0.2-0.8-0.4-1.3-0.4c-0.5,0-0.9,0.1-1.3,0.4s-0.6,0.6-0.8,1.1
		c-0.1,0.2-0.1,0.4-0.1,0.5c0,0.2,0,0.5,0,0.8s0,0.6,0,0.8c0,0.2,0.1,0.4,0.1,0.6c0.1,0.5,0.4,0.8,0.8,1.1c0.4,0.2,0.8,0.4,1.4,0.4
		c0.4,0,0.8-0.1,1.1-0.2s0.6-0.3,0.8-0.5c0.1-0.1,0.1-0.2,0.1-0.3c0-0.1,0-0.2-0.1-0.3c-0.1-0.1-0.2-0.1-0.3-0.1
		c-0.1,0-0.2,0-0.3,0.1c-0.2,0.1-0.4,0.3-0.6,0.3c-0.2,0.1-0.4,0.1-0.7,0.1c-0.3,0-0.6-0.1-0.8-0.2c-0.2-0.1-0.4-0.4-0.5-0.7
		c0-0.1-0.1-0.2-0.1-0.3c0-0.1,0-0.2,0-0.3c0,0,0-0.1,0.1-0.1h3.1c0.1,0,0.2,0,0.3-0.1s0.1-0.1,0.1-0.2c0-0.5-0.1-0.9-0.2-1.3
		C178.6,361.6,178.4,361.3,178,361L178,361z M177.9,363h-2.4c0,0-0.1,0-0.1-0.1c0-0.2,0-0.4,0.1-0.6c0.1-0.3,0.2-0.5,0.4-0.6
		s0.5-0.2,0.8-0.2s0.6,0.1,0.8,0.2s0.4,0.4,0.4,0.6C178,362.5,178,362.7,177.9,363C178,363,178,363,177.9,363L177.9,363z M184.3,361
		c-0.4-0.2-0.8-0.4-1.3-0.4c-0.5,0-0.9,0.1-1.3,0.4s-0.6,0.6-0.8,1c-0.1,0.2-0.1,0.4-0.1,0.6c0,0.2,0,0.5,0,0.8s0,0.6,0,0.8
		c0,0.2,0.1,0.4,0.1,0.6c0.1,0.5,0.4,0.8,0.8,1.1c0.4,0.2,0.8,0.4,1.4,0.4c0.4,0,0.8-0.1,1.1-0.2c0.3-0.1,0.6-0.3,0.8-0.5
		c0.1-0.1,0.1-0.2,0.1-0.3c0-0.1,0-0.2-0.1-0.3c-0.1-0.1-0.2-0.1-0.3-0.1c-0.1,0-0.2,0-0.3,0.1c-0.2,0.1-0.4,0.3-0.6,0.3
		c-0.2,0.1-0.4,0.1-0.7,0.1c-0.3,0-0.6-0.1-0.8-0.2c-0.2-0.1-0.4-0.4-0.5-0.7c0-0.1-0.1-0.2-0.1-0.3c0-0.1,0-0.2,0-0.3
		c0,0,0-0.1,0.1-0.1h3.1c0.1,0,0.2,0,0.3-0.1s0.1-0.1,0.1-0.2c0-0.5-0.1-0.9-0.2-1.3C184.9,361.6,184.6,361.3,184.3,361L184.3,361z
		 M184.2,363h-2.4c0,0-0.1,0-0.1-0.1c0-0.2,0-0.4,0.1-0.6c0.1-0.3,0.2-0.5,0.4-0.6c0.2-0.1,0.5-0.2,0.8-0.2s0.6,0.1,0.8,0.2
		c0.2,0.1,0.4,0.4,0.4,0.6C184.2,362.5,184.2,362.7,184.2,363C184.2,363,184.2,363,184.2,363L184.2,363z M190.3,360.9
		c-0.1,0-0.2-0.1-0.3-0.1c-0.1,0-0.3-0.1-0.5-0.1c-0.3,0-0.6,0.1-0.8,0.2s-0.4,0.3-0.5,0.6h0v-0.2c0-0.1,0-0.3-0.1-0.4
		c-0.1-0.1-0.2-0.1-0.3-0.1s-0.2,0-0.3,0.1s-0.1,0.2-0.1,0.4v4.4c0,0.1,0,0.3,0.1,0.4c0.1,0.1,0.2,0.1,0.3,0.1s0.2,0,0.3-0.1
		s0.1-0.2,0.1-0.4v-2.5c0-0.4,0.1-0.8,0.3-1.1c0.2-0.3,0.5-0.4,0.9-0.4c0.1,0,0.2,0,0.3,0c0.1,0,0.2,0.1,0.3,0.1
		c0.1,0,0.2,0.1,0.2,0.1c0.1,0,0.2,0,0.3-0.1s0.1-0.2,0.1-0.3C190.5,361.1,190.4,361,190.3,360.9L190.3,360.9z M194.6,363l-0.6-0.1
		c-0.4,0-0.7-0.1-0.8-0.2s-0.2-0.3-0.2-0.5s0.1-0.4,0.2-0.5c0.2-0.1,0.4-0.2,0.8-0.2c0.2,0,0.4,0,0.6,0.1s0.4,0.1,0.6,0.2
		c0.1,0.1,0.2,0.1,0.3,0.1c0.1,0,0.2,0,0.3-0.1s0.1-0.2,0.1-0.3c0-0.2-0.1-0.3-0.3-0.4c-0.2-0.1-0.4-0.2-0.7-0.3s-0.6-0.1-0.9-0.1
		c-0.6,0-1.1,0.1-1.4,0.4s-0.5,0.7-0.5,1.2c0,0.4,0.1,0.8,0.4,1c0.3,0.2,0.7,0.4,1.2,0.5l0.6,0.1c0.4,0,0.7,0.1,0.8,0.2
		c0.1,0.1,0.2,0.3,0.2,0.5c0,0.2-0.1,0.4-0.3,0.6s-0.5,0.2-0.9,0.2c-0.3,0-0.6,0-0.8-0.1c-0.2-0.1-0.5-0.2-0.7-0.3
		c-0.1,0-0.1-0.1-0.2-0.1s-0.1,0-0.1,0c-0.1,0-0.2,0-0.3,0.1c-0.1,0.1-0.1,0.2-0.1,0.3c0,0.1,0.1,0.3,0.2,0.4
		c0.2,0.2,0.5,0.3,0.8,0.4s0.7,0.2,1.1,0.2c0.7,0,1.2-0.1,1.6-0.5c0.4-0.3,0.6-0.7,0.6-1.2c0-0.4-0.1-0.8-0.4-1
		C195.6,363.2,195.2,363,194.6,363L194.6,363z M218.9,362.8l-14.6,0c-0.4,0-0.6,0-0.6,0.1v0.6c0,0.1,0.2,0.1,0.6,0.1l14.6,0
		c0.4,0,0.6,0,0.6-0.1v-0.6C219.5,362.8,219.3,362.8,218.9,362.8z M24.2,272c-0.2,0-0.4-0.1-0.6-0.2c-0.2-0.1-0.2-0.4-0.3-0.7
		c0-0.1-0.1-0.2-0.2-0.1l-1.7,0.3c-0.1,0-0.2,0.1-0.1,0.2c0.1,0.7,0.3,1.3,0.8,1.7c0.5,0.4,1.2,0.6,2.1,0.6c0.9,0,1.7-0.2,2.2-0.8
		s0.8-1.2,0.8-2c0-0.7-0.1-1.2-0.5-1.7c-0.3-0.4-0.8-0.8-1.6-1l-0.7-0.2c-0.3-0.1-0.5-0.2-0.6-0.4c-0.1-0.1-0.2-0.3-0.2-0.5
		c0-0.2,0.1-0.4,0.2-0.5c0.1-0.1,0.3-0.2,0.5-0.2c0.2,0,0.4,0.1,0.5,0.2s0.2,0.3,0.3,0.5c0,0.1,0.1,0.2,0.2,0.1l1.6-0.3
		c0.1,0,0.1-0.1,0.1-0.2c-0.1-0.6-0.3-1.1-0.8-1.5s-1.1-0.6-1.9-0.6c-0.9,0-1.6,0.2-2,0.7c-0.5,0.5-0.7,1.1-0.7,1.9
		c0,0.7,0.2,1.2,0.5,1.7c0.4,0.4,0.9,0.8,1.5,1l0.7,0.2c0.3,0.1,0.5,0.2,0.6,0.4c0.1,0.1,0.2,0.3,0.2,0.6c0,0.2-0.1,0.4-0.2,0.6
		C24.6,271.9,24.4,272,24.2,272L24.2,272z"/>
	<path class="st0" d="M29.1,263.3l0-1.8c0-0.1,0.1-0.2,0.2-0.2l1.9,0c0.1,0,0.2,0.1,0.2,0.2l0,1.8c0,0.1-0.1,0.2-0.2,0.2l-1.9,0
		C29.2,263.5,29.1,263.4,29.1,263.3z"/>
	<path class="st0" d="M29.1,273.4l0-8.4c0-0.1,0.1-0.2,0.2-0.2l1.9,0c0.1,0,0.2,0.1,0.2,0.2l0,8.3c0,0.1-0.1,0.2-0.2,0.2l-1.9,0
		C29.2,273.6,29.1,273.5,29.1,273.4z"/>
	<path class="st0" d="M35.8,264.9h-1.9c-0.1,0-0.2,0.1-0.2,0.2l0,8.4c0,0.1,0.1,0.2,0.2,0.2h1.9c0.1,0,0.2-0.1,0.2-0.2v-5.7
		c0-0.7,0.3-1,0.8-1s0.8,0.3,0.8,1v5.7c0,0.1,0,0.2,0.2,0.2h1.9c0.1,0,0.2-0.1,0.2-0.2v-6c0-0.9-0.2-1.6-0.5-2s-0.8-0.6-1.5-0.6
		c-0.4,0-0.8,0.1-1,0.3s-0.5,0.4-0.7,0.7h0V265C36,264.9,35.9,264.9,35.8,264.9L35.8,264.9z M44.2,268.2c0-0.2,0-0.5,0-0.6
		c0-0.1,0-0.2,0-0.3c0-0.1,0-0.1,0-0.2c0.1-0.3,0.3-0.5,0.7-0.5c0.2,0,0.4,0.1,0.5,0.2s0.2,0.4,0.2,0.7c0,0.1,0.1,0.2,0.2,0.2
		l1.7-0.3c0.1,0,0.1-0.1,0.1-0.2c-0.1-0.8-0.3-1.4-0.8-1.8c-0.5-0.4-1.2-0.7-2-0.7c-0.7,0-1.3,0.1-1.8,0.5s-0.8,0.8-1,1.4
		c0,0.1-0.1,0.3-0.1,0.4s0,0.3-0.1,0.5c0,0.2,0,0.4,0,0.7s0,0.6,0,1.1v1.1c0,0.3,0,0.5,0,0.7s0,0.4,0.1,0.5c0,0.1,0.1,0.3,0.1,0.4
		c0.2,0.6,0.5,1.1,1,1.4s1,0.5,1.8,0.5c0.8,0,1.5-0.2,2-0.7s0.8-1,0.9-1.8c0-0.1,0-0.2-0.1-0.2l-1.7-0.3c-0.1,0-0.2,0-0.2,0.2
		c0,0.3-0.1,0.5-0.2,0.7c-0.1,0.1-0.3,0.2-0.5,0.2c-0.3,0-0.6-0.1-0.7-0.5c0,0,0-0.1,0-0.2c0-0.1,0-0.2,0-0.3L44.2,268.2L44.2,268.2
		z M55.4,270c0.1,0,0.2-0.1,0.2-0.2v-1.4c0-0.4,0-0.7,0-0.9c0-0.2,0-0.4-0.1-0.5c0-0.1-0.1-0.3-0.1-0.4c-0.2-0.6-0.5-1-1-1.4
		c-0.5-0.3-1.1-0.5-1.8-0.5c-0.7,0-1.3,0.2-1.8,0.5c-0.5,0.3-0.8,0.8-1,1.4c0,0.1-0.1,0.2-0.1,0.4s0,0.3-0.1,0.5s0,0.4,0,0.7
		c0,0.3,0,0.6,0,1.1v1.1c0,0.3,0,0.5,0,0.7s0,0.4,0.1,0.5c0,0.1,0.1,0.3,0.1,0.4c0.2,0.6,0.5,1,1,1.4c0.5,0.3,1,0.5,1.8,0.5
		c0.8,0,1.4-0.2,1.9-0.6s0.8-0.9,1-1.6c0-0.1,0-0.2-0.1-0.2l-1.7-0.4c-0.1,0-0.2,0-0.2,0.1c-0.1,0.5-0.4,0.7-0.8,0.7
		c-0.4,0-0.6-0.2-0.7-0.5c0,0,0-0.1,0-0.1c0,0,0-0.1,0-0.2s0-0.2,0-0.4v-0.6c0-0.1,0-0.1,0.1-0.1L55.4,270L55.4,270z M51.9,267.4
		c0-0.1,0-0.3,0.1-0.4c0.1-0.3,0.3-0.5,0.7-0.5s0.6,0.2,0.7,0.5c0,0.1,0,0.2,0.1,0.4s0,0.4,0,0.8c0,0.1,0,0.1-0.1,0.1H52
		c-0.1,0-0.1,0-0.1-0.1C51.8,267.9,51.9,267.6,51.9,267.4L51.9,267.4z M191.4,273.9c0.1,0,0.2-0.1,0.2-0.2v-1.7
		c0-0.1-0.1-0.2-0.2-0.2h-3.2v0l2.6-4.1c0.1-0.2,0.3-0.5,0.4-0.7s0.2-0.4,0.3-0.7s0.1-0.5,0.2-0.8c0-0.3,0.1-0.6,0.1-0.9
		c0-0.3,0-0.6,0-0.8s-0.1-0.4-0.1-0.6c-0.2-0.6-0.5-1-1-1.4s-1.1-0.5-1.8-0.5s-1.4,0.2-1.8,0.5c-0.5,0.3-0.8,0.8-1,1.3
		c-0.1,0.2-0.1,0.4-0.1,0.6c0,0.2,0,0.5,0,0.9c0,0.1,0.1,0.2,0.2,0.2l1.8,0.2c0.1,0,0.2,0,0.2-0.2c0-0.4,0-0.6,0-0.7
		c0-0.1,0-0.2,0.1-0.3c0.1-0.3,0.3-0.5,0.7-0.5c0.4,0,0.6,0.2,0.7,0.5c0,0.1,0,0.2,0.1,0.3c0,0.1,0,0.3,0,0.5c0,0.5,0,0.9-0.1,1.1
		c-0.1,0.3-0.2,0.6-0.4,0.9l-3.1,5c-0.1,0.1-0.1,0.2-0.1,0.3v1.6c0,0.1,0.1,0.2,0.2,0.2L191.4,273.9L191.4,273.9z M194,271.8
		c0,0.1,0.1,0.3,0.1,0.4c0.2,0.6,0.5,1.1,1,1.4s1.1,0.5,1.8,0.5s1.3-0.1,1.8-0.5c0.5-0.3,0.8-0.8,1-1.4c0-0.1,0.1-0.2,0.1-0.4
		c0-0.1,0.1-0.4,0.1-0.7c0-0.3,0-0.7,0-1.3c0-0.5,0-1.2,0-2.1v-2.1c0-0.5,0-1,0-1.3s0-0.5-0.1-0.7s-0.1-0.3-0.1-0.4
		c-0.2-0.6-0.5-1.1-1-1.4s-1.1-0.5-1.8-0.5s-1.3,0.1-1.8,0.5s-0.8,0.8-1,1.4c0,0.1-0.1,0.2-0.1,0.4c0,0.1-0.1,0.4-0.1,0.7
		s0,0.7,0,1.3c0,0.5,0,1.2,0,2.1v2.1c0,0.5,0,1,0,1.3C193.9,271.5,193.9,271.7,194,271.8L194,271.8z M196.1,267.8v-2
		c0-0.5,0-0.9,0-1.1c0-0.2,0-0.4,0-0.5s0-0.1,0-0.2c0.1-0.3,0.3-0.5,0.7-0.5s0.6,0.2,0.7,0.5c0,0,0,0.1,0,0.2c0,0.1,0,0.2,0,0.5v5.2
		c0,0.5,0,0.9,0,1.1c0,0.2,0,0.4,0,0.5s0,0.1,0,0.2c-0.1,0.3-0.3,0.5-0.7,0.5s-0.6-0.2-0.7-0.5c0,0,0-0.1,0-0.2c0-0.1,0-0.2,0-0.5
		V267.8z M205.3,266.8l-3.1,5c-0.1,0.1-0.1,0.2-0.1,0.3v1.6c0,0.1,0.1,0.2,0.2,0.2h5.6c0.1,0,0.2,0,0.2-0.2v-1.7
		c0-0.1-0.1-0.2-0.2-0.2h-3.2v0l2.6-4.1c0.1-0.2,0.3-0.5,0.4-0.7s0.2-0.4,0.3-0.7s0.1-0.5,0.2-0.8c0-0.3,0.1-0.6,0.1-0.9
		c0-0.3,0-0.6,0-0.8s-0.1-0.4-0.1-0.6c-0.2-0.6-0.5-1-1-1.4s-1.1-0.5-1.8-0.5s-1.4,0.2-1.8,0.5c-0.5,0.3-0.8,0.8-1,1.3
		c-0.1,0.2-0.1,0.4-0.1,0.6c0,0.2,0,0.5,0,0.9c0,0.1,0.1,0.2,0.2,0.2l1.8,0.2c0.1,0,0.2,0,0.2-0.2c0-0.4,0-0.6,0-0.7
		c0-0.1,0-0.2,0.1-0.3c0.1-0.3,0.3-0.5,0.7-0.5c0.4,0,0.6,0.2,0.7,0.5c0,0.1,0,0.2,0.1,0.3c0,0.1,0,0.3,0,0.5c0,0.5,0,0.9-0.1,1.1
		C205.6,266.2,205.5,266.5,205.3,266.8L205.3,266.8z M213.5,266.8l-3.1,5c-0.1,0.1-0.1,0.2-0.1,0.3v1.6c0,0.1,0.1,0.2,0.2,0.2h5.6
		c0.1,0,0.2,0,0.2-0.2v-1.7c0-0.1-0.1-0.2-0.2-0.2h-3.2v0l2.6-4.1c0.1-0.2,0.3-0.5,0.4-0.7c0.2-0.4,0.4-0.9,0.4-1.4
		c0-0.3,0.1-0.6,0.1-0.9c0-0.3,0-0.6,0-0.8s-0.1-0.4-0.1-0.6c-0.2-0.6-0.5-1-1-1.4s-1.1-0.5-1.8-0.5s-1.4,0.2-1.8,0.5
		c-0.5,0.3-0.8,0.8-1,1.3c-0.1,0.2-0.1,0.4-0.1,0.6c0,0.2,0,0.5,0,0.9c0,0.1,0.1,0.2,0.2,0.2l1.8,0.2c0.1,0,0.2,0,0.2-0.2
		c0-0.4,0-0.6,0-0.7c0-0.1,0-0.2,0.1-0.3c0.1-0.3,0.3-0.5,0.7-0.5c0.4,0,0.6,0.2,0.7,0.5c0,0.1,0,0.2,0.1,0.3c0,0.1,0,0.3,0,0.5
		c0,0.5,0,0.9-0.1,1.1C213.9,266.2,213.7,266.5,213.5,266.8L213.5,266.8z"/>
</g>
</svg>
