<svg id="_レイヤー_2" xmlns="http://www.w3.org/2000/svg" viewBox="0 0 240.4 367.92"><defs><style>.cls-1{fill:#e60012}</style></defs><g id="logomark"><path class="cls-1" d="M103.98 169.56c.14 8.24-.21 18.74-1.02 31.2-.09 1.38.95 2.57 2.33 2.66h.17c1.31 0 2.41-1.01 2.49-2.34.83-12.6 1.17-23.23 1.03-31.61-.02-1.38-1.17-2.45-2.54-2.46a2.501 2.501 0 0 0-2.46 2.54ZM26.9 64.26l1.45 1.04 1.45-1.04c.38-.27 9.32-6.77 9.32-16.87 0-8.16-5.83-13.96-8.27-16.04v-9.39a2.5 2.5 0 0 0-5 0v9.39c-2.44 2.07-8.27 7.88-8.27 16.04 0 10.1 8.94 16.6 9.32 16.87Zm1.45-28.43c2.11 1.99 5.77 6.2 5.77 11.56s-3.66 9.58-5.77 11.56c-2.11-1.99-5.77-6.2-5.77-11.56s3.66-9.58 5.77-11.56ZM35.89 64.25c-7.14 7.14-5.42 18.06-5.34 18.52l.29 1.76 1.76.29c.15.03 1.49.24 3.46.24 3.9 0 10.31-.83 15.06-5.58 7.15-7.14 5.42-18.06 5.34-18.52l-.29-1.76-1.76-.29c-.46-.08-11.37-1.8-18.52 5.34Zm3.54 3.54c3.79-3.79 9.36-4.19 12.26-4.1.09 2.9-.3 8.47-4.09 12.26-3.79 3.79-9.36 4.18-12.26 4.1-.09-2.9.3-8.47 4.09-12.26ZM56.47 87.05l-.29-1.76-1.76-.29c-.46-.08-11.37-1.8-18.52 5.34-7.15 7.15-5.42 18.06-5.34 18.52l.29 1.76 1.76.29c.15.03 1.49.24 3.46.24 3.9 0 10.31-.83 15.06-5.58 7.14-7.15 5.42-18.06 5.34-18.52Zm-8.88 14.98c-3.79 3.79-9.36 4.19-12.26 4.09-.09-2.9.3-8.46 4.09-12.26 3.8-3.8 9.38-4.2 12.27-4.09.1 2.89-.28 8.44-4.1 12.26ZM56.47 113.14l-.29-1.76-1.76-.29c-.46-.08-11.37-1.8-18.52 5.34-7.15 7.15-5.42 18.06-5.34 18.52l.29 1.76 1.76.29c.15.03 1.49.24 3.46.24 3.9 0 10.31-.83 15.06-5.58 7.14-7.15 5.42-18.06 5.34-18.52Zm-8.88 14.98c-3.79 3.79-9.37 4.19-12.26 4.09-.09-2.9.3-8.47 4.09-12.26 3.8-3.8 9.38-4.19 12.27-4.09.1 2.89-.28 8.44-4.1 12.26ZM54.41 137.17c-.46-.08-11.38-1.81-18.52 5.34-7.14 7.15-5.42 18.06-5.34 18.52l.29 1.76 1.76.29c.15.03 1.49.24 3.46.24 3.9 0 10.31-.83 15.06-5.58 7.15-7.14 5.42-18.06 5.34-18.52l-.29-1.76-1.76-.29Zm-6.82 17.04c-3.79 3.79-9.36 4.18-12.26 4.1-.09-2.9.3-8.47 4.09-12.26 3.79-3.79 9.37-4.18 12.26-4.09.09 2.9-.3 8.46-4.09 12.26ZM20.64 85.06c1.97 0 3.3-.21 3.46-.24l1.76-.29.29-1.76c.08-.46 1.81-11.38-5.34-18.52-7.15-7.14-18.06-5.42-18.52-5.34l-1.76.29-.29 1.76c-.08.46-1.81 11.38 5.34 18.52 4.75 4.75 11.16 5.58 15.06 5.58ZM5.02 63.69c2.91-.09 8.47.3 12.26 4.09 3.8 3.8 4.19 9.37 4.09 12.27-2.89.09-8.44-.28-12.26-4.1-3.79-3.79-4.18-9.36-4.1-12.26ZM21.11 90.33c-7.14-7.15-18.06-5.42-18.52-5.34l-1.76.29-.29 1.76c-.08.46-1.81 11.37 5.34 18.52 4.75 4.75 11.16 5.58 15.06 5.58 1.97 0 3.3-.21 3.46-.24l1.76-.29.29-1.76c.08-.46 1.81-11.37-5.34-18.52Zm.56 15.8c-2.89.11-8.44-.28-12.26-4.1-3.79-3.79-4.18-9.36-4.1-12.26 2.9-.09 8.47.3 12.26 4.09 3.8 3.8 4.19 9.38 4.09 12.27ZM20.64 137.23c1.97 0 3.3-.21 3.46-.24l1.76-.29.29-1.76c.08-.46 1.81-11.37-5.34-18.52S2.75 111 2.29 111.08l-1.76.29-.29 1.76c-.08.46-1.81 11.37 5.34 18.52 4.75 4.75 11.16 5.58 15.06 5.58ZM5.02 115.85c2.88-.1 8.44.28 12.26 4.1 3.79 3.79 4.18 9.36 4.09 12.26-2.9.09-8.46-.3-12.26-4.09-3.8-3.8-4.19-9.37-4.09-12.27ZM21.11 142.51c-7.14-7.14-18.06-5.41-18.52-5.34l-1.76.29-.29 1.76c-.08.46-1.81 11.37 5.34 18.52 4.75 4.75 11.16 5.58 15.06 5.58 1.97 0 3.3-.21 3.46-.24l1.76-.29.29-1.76c.08-.46 1.81-11.37-5.34-18.52Zm.56 15.79c-2.91.09-8.47-.3-12.26-4.09-3.79-3.79-4.18-9.36-4.09-12.26 2.9-.09 8.46.3 12.26 4.09 3.79 3.79 4.18 9.36 4.1 12.26ZM210.59 64.26l1.45 1.04 1.45-1.04c.38-.27 9.32-6.77 9.32-16.87 0-8.16-5.83-13.96-8.27-16.04v-9.39a2.5 2.5 0 0 0-5 0v9.39c-2.44 2.07-8.27 7.88-8.27 16.04 0 10.1 8.94 16.6 9.32 16.87Zm1.45-28.43c2.11 1.99 5.77 6.2 5.77 11.56s-3.66 9.58-5.77 11.56c-2.11-1.99-5.77-6.2-5.77-11.56s3.66-9.58 5.77-11.56ZM204.33 85.06c1.97 0 3.3-.21 3.46-.24l1.76-.29.29-1.76c.08-.46 1.81-11.38-5.34-18.52-7.15-7.14-18.06-5.42-18.52-5.34l-1.76.29-.29 1.76c-.08.46-1.81 11.38 5.34 18.52 4.75 4.75 11.16 5.58 15.06 5.58Zm-15.62-21.38c2.88-.1 8.44.28 12.26 4.1 3.79 3.79 4.18 9.36 4.1 12.26-2.91.09-8.47-.3-12.26-4.09-3.8-3.8-4.19-9.37-4.09-12.27ZM204.33 111.15c1.97 0 3.3-.21 3.46-.24l1.76-.29.29-1.76c.08-.46 1.81-11.37-5.34-18.52s-18.06-5.42-18.52-5.34l-1.76.29-.29 1.76c-.08.46-1.81 11.37 5.34 18.52 4.75 4.75 11.16 5.58 15.06 5.58Zm-15.62-21.37c2.9-.09 8.46.3 12.26 4.09 3.79 3.79 4.18 9.36 4.1 12.26-2.9.08-8.47-.3-12.26-4.09s-4.18-9.36-4.1-12.26ZM204.33 137.23c1.97 0 3.3-.21 3.46-.24l1.76-.29.29-1.76c.08-.46 1.81-11.37-5.34-18.52s-18.06-5.42-18.52-5.34l-1.76.29-.29 1.76c-.08.46-1.81 11.37 5.34 18.52 4.75 4.75 11.16 5.58 15.06 5.58Zm-15.62-21.37c2.9-.09 8.46.3 12.26 4.09 3.8 3.8 4.19 9.38 4.09 12.27-2.88.09-8.44-.28-12.26-4.1-3.79-3.79-4.18-9.36-4.1-12.26ZM204.33 163.32c1.97 0 3.3-.21 3.46-.24l1.76-.29.29-1.76c.08-.46 1.81-11.37-5.34-18.52-7.14-7.14-18.06-5.41-18.52-5.34l-1.76.29-.29 1.76c-.08.46-1.81 11.37 5.34 18.52 4.75 4.75 11.16 5.58 15.06 5.58Zm-15.62-21.37c2.9-.09 8.46.3 12.26 4.09 3.79 3.79 4.18 9.36 4.1 12.26-2.91.09-8.47-.3-12.26-4.09-3.79-3.79-4.18-9.36-4.09-12.26ZM214.25 82.77l.29 1.76 1.76.29c.15.03 1.49.24 3.46.24 3.9 0 10.31-.83 15.06-5.58 7.15-7.14 5.42-18.06 5.34-18.52l-.29-1.76-1.76-.29c-.46-.08-11.37-1.8-18.52 5.34-7.14 7.14-5.42 18.06-5.34 18.52Zm21.13-19.08c.09 2.9-.3 8.47-4.09 12.26-3.79 3.79-9.36 4.18-12.26 4.1-.09-2.9.3-8.47 4.09-12.26 3.79-3.79 9.36-4.19 12.26-4.1ZM216 110.91c.15.03 1.49.24 3.46.24 3.9 0 10.31-.83 15.06-5.58 7.14-7.15 5.42-18.06 5.34-18.52l-.29-1.76-1.76-.29c-.46-.08-11.38-1.8-18.52 5.34-7.14 7.15-5.42 18.06-5.34 18.52l.29 1.76 1.76.29Zm6.82-17.04c3.8-3.8 9.38-4.2 12.27-4.09.1 2.89-.28 8.44-4.1 12.26-3.8 3.8-9.37 4.18-12.27 4.09-.1-2.89.28-8.44 4.1-12.26ZM239.87 111.38l-1.76-.29c-.46-.08-11.37-1.8-18.52 5.34-7.14 7.15-5.42 18.06-5.34 18.52l.29 1.76 1.76.29c.15.03 1.49.24 3.46.24 3.9 0 10.31-.83 15.06-5.58 7.14-7.15 5.42-18.06 5.34-18.52l-.29-1.76Zm-8.58 16.74c-3.8 3.8-9.38 4.2-12.27 4.09-.1-2.89.28-8.44 4.1-12.26 3.8-3.8 9.38-4.2 12.27-4.09.1 2.89-.28 8.44-4.1 12.26ZM213.95 161.03l.29 1.76 1.76.29c.15.03 1.49.24 3.46.24 3.9 0 10.32-.83 15.06-5.58 7.15-7.14 5.42-18.06 5.34-18.52l-.29-1.76-1.76-.29c-.46-.07-11.37-1.81-18.52 5.34-7.14 7.15-5.42 18.06-5.34 18.52Zm8.88-14.98c3.79-3.79 9.36-4.19 12.26-4.09.09 2.9-.3 8.46-4.1 12.26-3.8 3.8-9.37 4.18-12.27 4.09-.1-2.89.28-8.44 4.1-12.26Z"/><path class="cls-1" d="m239.87 163.55-1.76-.29c-.46-.08-11.37-1.8-18.52 5.34-7.14 7.14-5.42 18.06-5.34 18.52l.06.35c-.1.2-.19.42-.23.65-1.73 9.23-4.84 18.11-9.14 26.37-.44-1.87-1.08-3.68-1.88-5.4 2.9-6.43 5.07-13.2 6.39-20.19l.11-.02.29-1.76c.08-.46 1.81-11.38-5.34-18.52-7.15-7.14-18.06-5.42-18.52-5.34l-1.76.29-.29 1.76c-.08.46-1.81 11.38 5.34 18.52 4.71 4.71 11.05 5.56 14.96 5.58a85.528 85.528 0 0 1-4.38 14.43c-5.76-7.4-14.4-11.89-23.15-12.01h-.41c-8.65 0-17.76 3.94-25.58 10.82-.27-3.82-.51-7.84-.72-11.88h4.84c4.69 0 8.5-3.81 8.5-8.5v-9.08c0-1.4-.35-2.73-.95-3.9 3.44-1.09 5.94-4.31 5.94-8.1v-9.08c0-1.4-.35-2.73-.95-3.9 3.44-1.09 5.94-4.31 5.94-8.1v-9.08c0-1.4-.35-2.73-.95-3.9 3.44-1.09 5.94-4.31 5.94-8.1v-9.08c0-4.69-3.81-8.5-8.5-8.5h-5.23c.42-2.8.78-5.72 1.05-8.79 2.24-25.22.03-46.78-.48-51.19v-.37c0-9.03-6.33-16.67-15-18.45-2.3-8.57-10.07-14.61-19.1-14.61-1.2 0-2.4.11-3.57.32C123.38 3.08 117.16 0 110.46 0c-10.62 0-19.57 7.8-21.2 18.09-8.21 1.72-14.17 8.93-14.17 17.53v5.41c-.39 3.25-2.85 25.45-.53 51.6.41 4.62 1.01 8.9 1.73 12.93-5.13.12-9.27 4.33-9.27 9.49v30.05c0 9.42 2.67 17.63 7.71 23.74 3.05 3.7 2.76 9.08-.7 12.55l-10.17 10.45h-.03c-8.81.12-17.5 4.67-23.26 12.15-1.9-4.7-3.4-9.57-4.44-14.57 3.91 0 10.28-.85 15-5.58 7.15-7.14 5.42-18.06 5.34-18.52l-.29-1.76-1.76-.29c-.46-.08-11.37-1.8-18.52 5.34-7.14 7.14-5.42 18.06-5.34 18.52l.29 1.76h.06c1.34 7.07 3.54 13.9 6.48 20.39a27.87 27.87 0 0 0-1.85 5.46c-4.37-8.33-7.52-17.29-9.26-26.61-.04-.21-.11-.4-.2-.59l.07-.41c.08-.46 1.81-11.38-5.34-18.52-7.15-7.14-18.06-5.42-18.52-5.34l-1.76.29-.29 1.76c-.08.46-1.81 11.38 5.34 18.52 4.75 4.75 11.16 5.58 15.06 5.58.28 0 .54 0 .8-.01 2.32 12.16 6.92 23.73 13.42 34.15.14 2.17.49 4.36 1.07 6.55 3.2 12.07 12.59 21.98 26.45 27.89 7.92 3.38 16.33 5.87 24.22 7.7l-19.83 12.03 10.62 17.5 35.16-21.34h15.39l35.17 21.34 10.62-17.5-19.81-12.02c7.9-1.83 16.33-4.32 24.26-7.71 13.85-5.91 23.25-15.81 26.45-27.89.61-2.3.97-4.6 1.09-6.87 6.39-10.34 10.92-21.81 13.22-33.84.27 0 .54.01.84.01 3.9 0 10.31-.83 15.06-5.58 7.15-7.14 5.42-18.06 5.34-18.52l-.29-1.76Zm-47.06 16.74c-3.8-3.8-4.19-9.37-4.09-12.27 2.88-.1 8.44.28 12.26 4.1 3.79 3.79 4.18 9.36 4.1 12.26-2.91.09-8.47-.3-12.26-4.09Zm-157.47 4.1c-.09-2.9.3-8.47 4.09-12.26 3.79-3.79 9.36-4.19 12.26-4.1.09 2.9-.3 8.47-4.09 12.26-3.79 3.79-9.36 4.18-12.26 4.1Zm-13.97 0c-2.89.09-8.44-.28-12.26-4.1-3.79-3.79-4.18-9.36-4.1-12.26 2.91-.1 8.47.3 12.26 4.09 3.8 3.8 4.19 9.37 4.09 12.27Zm136.96-2.14c0 1.93-1.57 3.5-3.5 3.5h-19.02c-4.43 0-8.04-3.61-8.04-8.04s3.61-8.04 8.04-8.04h19.02c1.93 0 3.5 1.57 3.5 3.5v9.08Zm4.99-21.08c0 1.93-1.57 3.5-3.5 3.5h-30.13c-2.43 0-4.61-1.09-6.09-2.8a7.983 7.983 0 0 1 0-10.48c1.48-1.71 3.65-2.8 6.09-2.8h30.13c1.93 0 3.5 1.57 3.5 3.5v9.08Zm4.99-21.08c0 1.93-1.57 3.5-3.5 3.5H126.1c-.87 0-1.71-.14-2.5-.4a8.089 8.089 0 0 1-5-4.75c-.35-.9-.55-1.87-.55-2.89s.2-1.99.55-2.89c.87-2.24 2.71-4 5-4.75.79-.26 1.62-.4 2.5-.4h38.71c1.93 0 3.5 1.57 3.5 3.5v9.08Zm1.49-33.67c1.93 0 3.5 1.57 3.5 3.5V119c0 1.93-1.57 3.5-3.5 3.5h-18.09c-4.43 0-8.04-3.61-8.04-8.04s3.61-8.04 8.04-8.04h18.09Zm-8.3-43.33h-52.95V43.56h4.92v5.71c0 5.04 4.1 9.14 9.14 9.14s9.14-4.1 9.14-9.14v-5.71h28.58c.34 3.35.95 10.39 1.17 19.53ZM80.11 38.55v-2.93c0-6.7 5.02-12.23 11.68-12.86l2.13-.2.13-2.13C94.59 11.78 101.8 5 110.48 5c5.59 0 10.75 2.8 13.81 7.5l1 1.53 1.76-.49c1.29-.36 2.63-.54 3.97-.54 7.21 0 13.34 5.15 14.57 12.24l.32 1.86 1.87.2c6.19.67 11.03 5.32 12.12 11.25v.02h-33.16v10.71c0 2.28-1.86 4.14-4.14 4.14s-4.14-1.86-4.14-4.14V38.57h-14.92v33.24c0 2.28-1.86 4.14-4.14 4.14s-4.14-1.86-4.14-4.14V38.56H80.09v-.02Zm-.25 5.02h10.42V63.1H78.69c.22-9.14.83-16.18 1.17-19.53ZM78.61 68.1h11.66v3.71c0 5.04 4.1 9.14 9.14 9.14s9.14-4.1 9.14-9.14V68.1h53.02c.05 7.25-.18 15.48-.94 24.09-.29 3.25-.67 6.32-1.12 9.24h-7.8c-7.19 0-13.04 5.85-13.04 13.04 0 3.03 1.05 5.82 2.8 8.04h-15.36c-.85 0-1.69.09-2.5.25-3.13.61-5.85 2.34-7.75 4.75-1.75 2.22-2.8 5.01-2.8 8.04 0 4.4 2.2 8.29 5.55 10.66.61.43 1.27.81 1.95 1.13-.75.73-1.4 1.56-1.95 2.46-1.23 1.99-1.96 4.33-1.96 6.84s.72 4.84 1.96 6.84c1.22 1.97 2.94 3.6 5 4.69.76.4 1.57.73 2.41.98a12.771 12.771 0 0 0-2.41 4.05c-.53 1.41-.83 2.93-.83 4.53s.3 3.11.83 4.53c1.85 4.96 6.62 8.51 12.22 8.51h9.16c.28 5.69.66 11.35 1.05 16.53-.66.74-1.31 1.5-1.94 2.28-.65.8-1.38 1.72-2.16 2.7H98.62c-.78-.98-1.51-1.89-2.16-2.7-.74-.92-1.5-1.79-2.28-2.65 1-13.32 1.89-29.76 1.35-41.66-.49-10.74-2.84-19.67-5.61-28.64 2.82-1.27 5.22-3.3 6.91-5.85 1.44 4.57 2.89 9.27 4.08 14.19a2.506 2.506 0 0 0 3.02 1.84 2.51 2.51 0 0 0 1.84-3.02c-1.39-5.72-3.08-11.08-4.73-16.27-.02-.08-.05-.16-.07-.24-.49-1.54-.98-3.09-1.47-4.66v-.1c.01-.24.04-.47.04-.71 0-3.47-1.1-6.68-2.96-9.32-1.65-6.38-3.02-13.35-3.74-21.47a2.493 2.493 0 0 0-2.71-2.27 2.5 2.5 0 0 0-2.27 2.71c.51 5.73 1.32 10.88 2.32 15.65-2.1-.99-4.43-1.56-6.9-1.56h-1.92c-.76-4.12-1.39-8.53-1.82-13.36-.76-8.61-.99-16.84-.94-24.09Zm-6.58 59.41v-12.47c0-2.48 2.02-4.5 4.5-4.5h6.75c3.5 0 6.63 1.61 8.7 4.13 1.59 1.94 2.55 4.43 2.55 7.13 0 .24-.02.47-.04.71-.01.23-.03.46-.06.68a11.1 11.1 0 0 1-1.48 4.32 11.243 11.243 0 0 1-4.56 4.3 11.17 11.17 0 0 1-4.86 1.23c-.09 0-.17.01-.26.01h-6.75c-2.48 0-4.5-2.02-4.5-4.5v-1.04Zm5.56 57.38c5.27-5.27 5.7-13.55 1-19.24-4.35-5.27-6.56-12.19-6.56-20.56v-8.17a9.48 9.48 0 0 0 4.5 1.14h6.75c.61 0 1.21-.04 1.8-.11 2.69 8.72 4.97 17.35 5.44 27.55.47 10.37-.2 24.59-1.04 36.84-5.94-5.13-12.61-8.57-19.24-9.89l7.35-7.55Zm31.2 85.42-29.74 18.04-5.43-8.95 19.83-12.03.29-.17c6.15 1.18 11.73 1.95 16.18 2.42l-1.13.69Zm1.57-19.8c-2.56-3.27-6.61-8.42-10.85-13.82-1.03-1.31-2.08-2.64-3.12-3.96-.4-.51-.81-1.02-1.21-1.53-2.63-3.34-5.17-6.54-7.31-9.23a435.1 435.1 0 0 0-2.68-3.35c-6-7.46-13.01-12.4-19.91-12.4-.34 0-.69.01-1.03.04-5.36.39-9.17 2.64-12.2 6.64-1.59 2.09-2.49 4.66-2.71 7.43-.15 1.85 0 3.8.49 5.76.03.1.04.21.07.31.45 1.69 1.29 3.93 2.88 6.36 1.8 2.76 4.56 5.78 8.79 8.52 1.86 1.21 4.01 2.36 6.48 3.42.22.09.45.18.67.27 3.78 1.58 7.69 2.95 11.6 4.12 1.84.55 3.68 1.06 5.51 1.53.11.03.22.05.33.08 6.84 1.75 13.41 2.95 18.95 3.75 1.54.22 3 .41 4.37.58.31.04.6.07.9.1v9.51l-.3-.03c-2.87-.31-6.21-.75-9.86-1.34-2.35-.38-4.84-.83-7.41-1.35-.13-.03-.26-.06-.38-.08-4.53-.93-9.32-2.08-14.16-3.51-1.57-.47-3.15-.96-4.73-1.49-3.09-1.03-6.17-2.18-9.18-3.46-.94-.4-1.85-.83-2.74-1.27-8.49-4.18-14.82-10.08-18.43-17.09a31.071 31.071 0 0 1-2.41-6.21c-.5-1.88-.8-3.77-.91-5.63-.02-.37-.02-.73-.03-1.1-.04-2.12.15-4.21.6-6.21l.09-.36c.53-2.17 1.34-4.24 2.44-6.15.47-.81.98-1.59 1.55-2.33 3.39-4.42 8.25-7.86 13.65-9.37 1.86-.52 3.78-.82 5.73-.85h.34c.56 0 1.12.02 1.68.06 7.87.54 16.15 4.81 23.09 11.85 1.1 1.11 2.16 2.29 3.18 3.53.12.15.25.29.37.44.33.41.68.85 1.05 1.31.79.99 1.66 2.08 2.59 3.25 2.07 2.61 4.44 5.6 6.86 8.67.07.09.14.18.21.26l2.91 3.69c.34.44.69.87 1.03 1.31 1.07 1.36 2.13 2.71 3.15 4.01v15.3Zm-14.39-10.22c2.47 3.14 4.86 6.17 6.9 8.78-3.87-.62-8.32-1.46-13-2.57l6.1-6.21Zm-11.69 4.76c-4.75-1.33-9.61-2.95-14.28-4.95-2.07-.88-3.87-1.84-5.43-2.83-3.9-2.47-6.3-5.15-7.8-7.54-1.11-1.77-1.72-3.39-2.05-4.62-.93-3.52-.46-6.88 1.31-9.21 2.28-3 4.84-4.4 8.58-4.67.22-.02.45-.02.67-.02 4.86 0 10.55 3.74 16.01 10.54 2.84 3.53 7.16 8.99 11.56 14.57l-8.57 8.72Zm40.75-11.4v35.23h-9.68v-2.56l.05-.03-.05-.03v-34.77h9.68v2.16Zm-15.23-7.45h-.17c-1.02-1.29-2.04-2.58-3.04-3.86-1.38-1.74-2.73-3.45-4.01-5.08h35.38c-2.23 2.81-4.65 5.89-7.06 8.94h-21.09Zm57.03 53.2-5.43 8.95-29.76-18.05-1.11-.67c4.45-.48 10.04-1.24 16.19-2.42l.24.14 19.86 12.05Zm32.93-50.58c-.51 1.94-1.22 3.81-2.1 5.62-3.62 7.43-10.27 13.64-19.27 17.95-.72.34-1.45.68-2.2 1-9.39 4.01-19.49 6.73-28.5 8.55-.04 0-.09.02-.13.03-2.53.51-4.97.95-7.29 1.32-3.63.59-6.95 1.02-9.81 1.33-.15.02-.29.03-.43.05v-9.51c.32-.04.64-.07.97-.11 1.36-.16 2.83-.35 4.37-.58 5.44-.78 11.88-1.95 18.59-3.65 6.15-1.56 12.52-3.56 18.52-6.12 2.21-.94 4.14-1.97 5.86-3.04 4.92-3.06 7.95-6.48 9.81-9.55 1.33-2.18 2.08-4.18 2.48-5.72.57-2.15.73-4.28.54-6.3-.26-2.69-1.15-5.18-2.69-7.21-3.03-4-6.85-6.25-12.2-6.64-.34-.02-.69-.04-1.03-.04-6.9 0-13.91 4.94-19.91 12.4-.87 1.09-1.89 2.36-3 3.76-2.07 2.6-4.49 5.66-6.99 8.82a8751.66 8751.66 0 0 0-15.31 19.48v-15.3c1.06-1.35 2.17-2.76 3.29-4.18 1.3-1.66 2.63-3.34 3.94-5 2.5-3.17 4.94-6.26 7.07-8.94.81-1.01 1.56-1.96 2.27-2.84.49-.61.95-1.19 1.38-1.72.11-.14.23-.27.35-.41.93-1.13 1.88-2.21 2.86-3.22 7.51-7.75 16.62-12.25 25.11-12.25h.34c7.61.11 14.82 4.28 19.38 10.22a21.1 21.1 0 0 1 1.46 2.17c1.12 1.89 1.94 3.94 2.49 6.1.52 2.08.78 4.25.76 6.47-.02 2.32-.33 4.69-.95 7.04Zm-62.12 20.25c6.52-8.31 16.47-20.96 21.58-27.31 5.47-6.8 11.15-10.54 16.01-10.54.22 0 .45 0 .67.02 3.74.27 6.3 1.67 8.58 4.67 1.76 2.33 2.24 5.68 1.31 9.21-.29 1.09-.8 2.47-1.67 4-1.51 2.64-4.15 5.71-8.71 8.47-1.44.87-3.05 1.72-4.9 2.51-11.27 4.81-23.67 7.5-32.87 8.97Zm93.63-68.77c-3.79 3.79-9.36 4.18-12.26 4.1-.09-2.9.3-8.47 4.09-12.26 3.79-3.79 9.36-4.19 12.26-4.1.09 2.9-.3 8.47-4.09 12.26ZM36.5 305.4c-6.45 1.61-13.5 4.84-18.7 6.99-4.48 1.85-1.91 8.18 2.93 5.97 2.93-1.37 5.62-2.75 8.3-4.06s5.44-2.57 8.54-3.52c5.38-1.61 12.13-1.73 15.95 2.63 2.75 3.17 2.39 8.06-2.69 12.54-4.24 3.76-10.04 5.97-17.56 6.99-4.78.66-4.36 7.23 1.19 6.33 8.84-1.49 15.29-4.42 20.13-8.42 7.35-6.09 9.74-14.64 3.29-21.39-5.5-5.74-14.58-5.79-21.39-4.06ZM133.36 304.63c-4.3-.3-4.54 5.2-.9 5.32 3.05.12 5.62 2.45 6.87 4.36 1.08 1.67 2.87 1.67 4.12.9 1.25-.78 2.03-2.33 1.08-4.12-1.85-3.35-6.93-6.15-11.17-6.45Z"/><path class="cls-1" d="M131.15 325.12c1.31 5.67.54 9.2-4 10.75-4.24 1.43-10.75 1.49-13.26-.06-2.21-1.37-1.85-4-.72-6.69.96-2.21 2.39-4.78 3.05-6.63.78-2.21.6-4.06-.18-5.5.06-1.25.12-2.51.18-3.35.12-2.21.18-4.12.3-6.03 1.67-.54 3.41-1.2 4.6-1.85 3.94-2.27.78-7.05-2.27-5.02-.48.36-1.08.66-1.67.96.12-1.49.12-3.05.06-4-.18-4-6.81-4.3-6.33.3.12 1.31.54 2.99.48 5.56-1.91.3-3.58.18-4.96-.36-3.58-1.43-5.32 3.82-2.09 5.08 1.02.42 3.17 1.02 6.69.6-.12 1.43-.24 2.93-.3 4.36-.36-.06-.66-.12-1.02-.18-5.85-.66-10.99 5.74-6.81 12.72 1.02 1.73 2.87 2.81 4.78 2.99-1.79 5.44-.66 9.38 3.11 11.65 4.48 2.69 12.96 2.63 18.04.96 8.24-2.75 10.16-8.42 8.36-16.85-.96-4.66-6.93-3.29-6.03.6Zm-20.13-4.48v.06c-.06.3-.18.66-.3 1.02-1.55 3.88-4.12 1.91-4.66.54-.84-2.21.42-4.96 3.11-4.6.84.12 1.31.54 1.61 1.2l.06.06c.18.48.24 1.08.18 1.73ZM203.6 337.72c-3.7.72-7.05.24-9.68-.9-2.75-1.14-4-4.3-.9-5.79 4.18-2.03 12.67-.84 15.83 1.02 2.69 1.55 5.56 1.02 6.15-2.09.66-3.41-1.73-8.18-3.88-10.93-.42-.6-.9-1.13-1.31-1.73 1.85-.66 3.46-1.31 4.72-1.97 3.35-1.67.78-7.17-3.41-4.78-1.08.6-2.63 1.25-4.48 1.91-.96-1.61-1.79-3.29-2.57-5.02 1.85-.6 3.41-1.19 4.78-1.85 3.17-1.49.9-6.75-3.05-4.66-1.02.54-2.27 1.14-3.76 1.61-1.49-3.64-2.93-7.11-4.3-9.02-2.15-2.93-8.48-.66-5.14 3.11 1.67 1.85 2.99 4.48 4.3 7.23-2.27.36-4.78.54-7.41.36-4.78-.36-3.58 5.44.3 5.44 3.41 0 6.63-.36 9.5-.96.96 1.85 1.91 3.58 2.81 5.14-3.41.84-7.17 1.25-10.28.84-5.08-.66-4.54 5.44-.42 5.73 4.42.3 9.38-.42 13.74-1.61.42.66.9 1.19 1.31 1.79 3.46 4.66 2.51 5.56-.72 5.14-3.94-.48-11.29-.96-15.71 1.31-6.69 3.41-5.02 11.77 2.03 14.76 3.52 1.49 7.41 2.39 11.83 2.03 5.38-.48 5.02-7.11-.3-6.09ZM210.77 299.55c1.08.72 3.64 3.29 4.24 4.36 1.55 2.63 5.56-.36 3.7-3.23-1.08-1.61-3.82-3.76-5.26-4.6-2.57-1.49-5.44 1.67-2.69 3.46ZM219.55 291.96c-2.63-1.37-5.38 1.79-2.57 3.46 1.14.66 3.7 3.17 4.36 4.18 1.61 2.57 5.56-.48 3.58-3.29-1.13-1.55-3.88-3.58-5.38-4.36ZM33.77 362.39l-14.63-.03c-.37 0-.55.04-.55.11v.64c0 .07.18.11.55.11l14.63.03c.37 0 .55-.04.55-.11v-.64c0-.07-.18-.11-.55-.11ZM45.48 358.32H40.9c-.15 0-.26.04-.35.12-.09.09-.13.2-.13.33 0 .12.04.23.13.32s.21.13.35.13h1.73s.07.03.07.07v6.03c-.01.17.03.3.13.39.09.09.21.14.36.14s.27-.05.36-.14c.09-.09.13-.22.13-.39v-6.03s.03-.07.08-.07h1.73c.15 0 .26-.04.35-.13.09-.09.13-.19.13-.32s-.04-.24-.13-.33-.21-.13-.35-.13ZM50.13 360.42c-.36 0-.66.07-.91.2s-.44.31-.56.51h-.01v-2.37c0-.15-.04-.28-.13-.36-.09-.09-.2-.13-.33-.13s-.24.04-.33.13c-.09.09-.13.21-.13.36v6.6c-.01.15.03.28.12.36s.2.13.33.13.24-.04.33-.13c.09-.09.13-.21.13-.36v-2.8c0-.4.12-.71.34-.94s.52-.35.88-.35c.4 0 .69.12.88.35.19.23.29.57.29.99v2.75c0 .15.04.28.13.36s.2.13.33.13.24-.04.33-.13c.09-.09.13-.21.13-.36v-2.97c0-.6-.15-1.08-.48-1.44-.32-.36-.77-.54-1.34-.54ZM57.48 360.79c-.36-.24-.79-.36-1.31-.37-.51 0-.94.12-1.3.36-.36.24-.61.59-.76 1.05-.06.17-.1.35-.13.56-.03.2-.04.46-.04.78s.01.57.04.78c.03.2.07.39.13.56.15.46.4.82.76 1.06.36.25.81.37 1.36.37.41 0 .77-.07 1.08-.2.31-.14.58-.31.81-.52.1-.09.14-.21.14-.33 0-.11-.04-.2-.11-.28s-.17-.11-.27-.11-.21.04-.32.13c-.2.15-.39.26-.59.33-.19.08-.42.11-.68.11-.33 0-.61-.08-.84-.23s-.39-.38-.49-.69c-.04-.1-.06-.2-.07-.3-.01-.1-.02-.21-.02-.34 0-.04.02-.07.07-.07h3.09c.11 0 .2-.03.26-.09s.1-.15.1-.25c0-.51-.06-.93-.17-1.28-.15-.45-.4-.8-.75-1.05Zm-.09 1.94h-2.44s-.07-.03-.07-.07c0-.24.03-.44.08-.59.09-.26.24-.47.45-.61.21-.14.46-.21.76-.21s.56.07.76.22c.21.14.36.35.44.61.05.15.08.35.08.59 0 .04-.02.07-.07.07ZM67.9 361.77c-.14-.42-.36-.74-.67-.97-.31-.23-.69-.35-1.14-.35-.4 0-.71.06-.95.2-.24.13-.42.3-.54.51h-.01v-2.35c0-.15-.04-.28-.13-.36s-.2-.13-.33-.13-.24.04-.33.13c-.09.09-.13.21-.13.36v6.6c-.01.15.03.28.12.36s.2.13.33.13.24-.04.33-.13c.09-.09.13-.21.13-.36v-.14h.01c.12.21.31.38.54.51s.56.19.95.19c.45 0 .83-.11 1.14-.34.31-.23.54-.55.68-.97.07-.21.12-.43.14-.65.03-.22.04-.48.05-.79 0-.3-.01-.56-.04-.78-.03-.22-.08-.44-.14-.65Zm-.79 2.03c-.01.17-.05.33-.1.47-.09.26-.23.47-.42.61-.2.14-.44.21-.73.21-.3 0-.55-.07-.74-.22-.19-.14-.33-.35-.42-.61-.05-.15-.08-.31-.1-.47-.01-.17-.02-.37-.02-.6 0-.23 0-.43.02-.59.02-.17.05-.33.1-.47.09-.26.23-.47.43-.61.19-.14.44-.21.74-.21.29 0 .54.07.73.22.19.14.33.35.42.61.05.15.08.3.1.47.01.17.02.37.02.6 0 .23 0 .44-.02.6ZM73.41 360.82c-.36-.24-.79-.36-1.31-.36-.51 0-.94.12-1.3.36-.36.24-.61.59-.76 1.05-.06.17-.1.35-.13.56-.03.2-.04.46-.04.78s.01.57.04.78c.03.2.07.39.13.56.15.46.4.82.76 1.06.36.25.81.37 1.36.37.41 0 .77-.07 1.08-.2.31-.13.58-.31.81-.52.1-.09.14-.21.14-.33 0-.11-.04-.2-.11-.28a.393.393 0 0 0-.28-.11c-.1 0-.21.04-.32.13-.2.15-.39.26-.59.33-.19.08-.42.11-.68.11-.33 0-.61-.08-.84-.23-.23-.15-.39-.38-.49-.69-.04-.1-.06-.2-.07-.3-.01-.1-.02-.21-.02-.34 0-.04.02-.07.07-.07h3.09c.11 0 .2-.03.26-.09s.1-.15.1-.25c0-.51-.06-.93-.17-1.28-.15-.45-.4-.8-.75-1.05Zm-.09 1.94h-2.44s-.07-.03-.07-.07c0-.24.03-.44.08-.59.09-.26.24-.47.45-.61.21-.14.46-.21.77-.21.3 0 .55.07.76.22s.36.35.44.61c.05.15.08.35.08.59 0 .04-.02.07-.07.07ZM78.72 362.77l-.55-.06c-.4-.04-.67-.11-.82-.23-.15-.11-.22-.28-.22-.49 0-.21.08-.39.25-.52.17-.13.42-.2.75-.2.21 0 .42.03.61.08s.38.12.56.2c.12.06.23.09.33.09.11 0 .2-.04.28-.12s.12-.17.12-.28c0-.16-.09-.29-.27-.39-.21-.12-.44-.21-.71-.28-.27-.07-.55-.11-.86-.11-.62 0-1.1.14-1.44.42-.34.28-.51.68-.51 1.18 0 .43.13.76.39 1.02.26.25.66.41 1.18.47l.55.06c.42.04.69.13.83.24s.2.29.2.51c0 .24-.1.43-.29.57-.2.15-.48.22-.86.22-.3 0-.57-.05-.8-.14-.23-.09-.46-.2-.67-.33-.07-.04-.12-.06-.17-.08s-.09-.02-.14-.02c-.12 0-.23.04-.31.13a.4.4 0 0 0-.12.29c0 .15.07.28.22.38.22.16.49.29.82.41.33.12.69.18 1.1.18.71 0 1.24-.15 1.61-.46s.55-.73.55-1.25c0-.43-.13-.78-.38-1.03s-.66-.41-1.21-.47ZM83.49 361.35h.69c.12 0 .22-.03.29-.1s.1-.16.1-.27-.03-.2-.1-.27-.17-.1-.29-.11h-.69s-.07-.02-.07-.07v-1.16c0-.15-.04-.27-.13-.36a.445.445 0 0 0-.33-.13c-.13 0-.24.04-.33.13-.09.09-.13.21-.13.36v1.16s-.02.07-.07.07h-.3c-.12 0-.22.03-.29.1-.07.07-.11.16-.11.27s.03.2.1.27a.4.4 0 0 0 .29.11h.3s.07.02.07.07v2.96c0 .55.1.95.32 1.19s.6.36 1.14.37h.11c.17 0 .29-.04.37-.12.08-.08.12-.18.12-.31s-.04-.23-.11-.31c-.08-.08-.19-.12-.34-.12-.28 0-.47-.05-.56-.16-.1-.1-.14-.29-.14-.57v-2.93s.03-.07.07-.07ZM93.9 361.82c-.14-.42-.36-.74-.67-.97-.31-.23-.69-.35-1.14-.35-.4 0-.71.06-.95.19s-.42.3-.54.51h-.01v-.14c0-.15-.04-.27-.13-.36a.445.445 0 0 0-.33-.13c-.13 0-.24.04-.33.13-.09.09-.13.21-.13.36v6.37c-.01.15.03.28.12.36.09.09.2.13.33.13s.24-.04.33-.13c.09-.09.13-.21.13-.36v-2.12h.01c.12.21.31.38.54.51.24.13.56.2.95.2.45 0 .83-.11 1.14-.34.31-.23.54-.55.68-.97.07-.21.12-.43.14-.65.03-.22.04-.48.05-.78 0-.31-.01-.57-.04-.79-.03-.22-.08-.44-.14-.65Zm-.79 2.03c-.01.17-.05.33-.1.47-.09.26-.23.47-.42.61-.2.14-.44.21-.73.21-.3 0-.55-.07-.74-.22-.19-.14-.33-.35-.42-.61-.05-.15-.08-.31-.1-.47-.01-.17-.02-.37-.02-.59 0-.23 0-.44.02-.61.02-.17.05-.33.1-.47.09-.26.23-.47.43-.61.19-.14.44-.21.74-.21.29 0 .54.07.73.22.19.14.33.35.42.61.05.15.08.3.1.47.01.17.02.37.02.61 0 .23 0 .43-.02.59ZM97.52 365.1c-.18 0-.31-.05-.39-.14-.08-.09-.12-.25-.11-.47v-5.63c.01-.15-.03-.28-.12-.36a.445.445 0 0 0-.33-.13c-.13 0-.24.04-.33.13-.09.09-.13.21-.13.36v5.69c-.01.48.08.83.27 1.06.19.23.52.35 1 .35h.1c.15 0 .27-.04.35-.12.08-.08.12-.18.12-.31a.43.43 0 0 0-.12-.31.414.414 0 0 0-.31-.12ZM103.85 364.92c-.04-.08-.06-.16-.08-.23-.01-.07-.02-.17-.02-.31v-1.89c0-.65-.16-1.14-.49-1.47-.33-.33-.86-.5-1.57-.5-.37 0-.68.04-.95.11-.27.08-.49.17-.66.28a.38.38 0 0 0-.17.16c-.03.07-.05.14-.05.21 0 .12.03.22.1.29s.17.11.29.11c.07 0 .16-.03.26-.08.12-.07.28-.13.48-.18.19-.05.39-.08.6-.08.46 0 .79.1.98.3.19.2.29.48.28.86v.25s-.02.07-.07.07h-1.2c-.66 0-1.17.13-1.52.4-.36.27-.53.68-.54 1.23 0 .51.16.9.48 1.17.32.27.78.41 1.37.41.39 0 .71-.05.97-.16s.47-.26.65-.46h.01l.21.33c.11.15.25.23.41.23.14 0 .25-.04.34-.12.09-.08.13-.19.13-.31 0-.09-.03-.18-.08-.26l-.19-.34Zm-.99-.72c0 .33-.12.58-.36.76-.24.18-.56.27-.97.27-.35 0-.62-.07-.81-.21-.19-.14-.29-.34-.29-.62 0-.3.11-.52.31-.65s.54-.2 1-.2h1.06s.07.02.07.07v.58ZM106.8 362.21c.09-.28.24-.48.44-.62.21-.13.45-.2.74-.2.23 0 .43.04.58.12.15.08.29.19.42.32.06.07.12.12.19.16.07.04.14.06.22.06.12 0 .21-.04.29-.12.08-.08.12-.17.12-.29 0-.1-.04-.22-.13-.34a2.15 2.15 0 0 0-.67-.54c-.28-.15-.62-.23-1.01-.23-.51 0-.94.12-1.31.36-.37.24-.62.59-.77 1.05-.05.16-.09.35-.12.57-.03.22-.04.47-.04.76 0 .3.01.56.04.78.03.22.07.41.12.57.15.46.4.81.77 1.06s.8.37 1.31.37c.4 0 .73-.07 1.01-.22s.5-.33.67-.54a.56.56 0 0 0 .13-.34c0-.12-.04-.21-.12-.29a.385.385 0 0 0-.29-.12c-.08 0-.15.02-.22.06-.07.04-.13.09-.19.16-.13.13-.26.24-.42.32-.15.08-.35.12-.58.12-.29 0-.53-.07-.74-.21-.21-.14-.35-.34-.44-.62-.04-.14-.07-.3-.09-.47a5.4 5.4 0 0 1-.03-.61c0-.24.01-.44.03-.61s.05-.32.09-.46ZM115 360.91c-.35-.24-.79-.36-1.31-.37-.51 0-.94.12-1.3.36-.36.24-.61.59-.76 1.05-.06.17-.1.35-.13.56-.03.2-.04.46-.04.78s.01.57.04.78c.03.2.07.39.13.56.15.46.4.82.76 1.06.36.25.81.37 1.36.37.41 0 .77-.07 1.08-.2.31-.14.58-.31.81-.52.09-.09.14-.2.14-.33 0-.11-.04-.2-.11-.28a.37.37 0 0 0-.27-.11c-.1 0-.21.04-.32.13-.2.15-.39.26-.59.33-.19.08-.42.11-.68.11-.33 0-.61-.08-.84-.23s-.39-.38-.49-.69c-.04-.1-.06-.2-.07-.3-.01-.1-.02-.21-.02-.34 0-.04.02-.07.07-.07h3.09a.4.4 0 0 0 .27-.09c.06-.07.1-.15.1-.25 0-.51-.06-.93-.17-1.28-.15-.46-.39-.8-.75-1.05Zm-.09 1.94h-2.44s-.07-.03-.07-.07c0-.24.03-.44.08-.59.09-.26.24-.47.45-.61.21-.14.46-.21.76-.21s.56.07.76.22c.21.14.36.35.44.61.05.15.08.35.08.59 0 .04-.02.07-.07.07ZM122.31 359.71c.02-.1.06-.18.12-.23s.14-.09.25-.11c.11-.02.24-.03.41-.03.15 0 .26-.04.33-.12.08-.08.12-.18.12-.31s-.04-.23-.12-.31c-.08-.08-.2-.12-.36-.12h-.08c-.55 0-.96.12-1.23.37s-.4.68-.4 1.31v.46s-.02.07-.07.07h-.3c-.12 0-.22.03-.29.1-.07.07-.1.16-.1.27s.03.2.1.27.17.1.29.1h.3s.07.02.07.07v4.01c0 .15.04.28.12.36s.2.13.33.13.24-.04.33-.13c.09-.09.13-.21.13-.36v-4.01s.03-.07.07-.07h.78c.12 0 .22-.03.29-.1s.11-.16.11-.27-.04-.2-.1-.27-.17-.1-.29-.1h-.78s-.07-.02-.07-.07v-.52c0-.16.01-.29.03-.39ZM129.22 361.99c-.15-.46-.4-.81-.76-1.05-.36-.25-.8-.37-1.31-.37s-.95.12-1.32.37c-.36.25-.62.59-.77 1.05-.06.18-.1.37-.13.57-.03.2-.04.45-.05.76 0 .31.01.56.04.76.03.2.07.39.13.58.15.45.4.8.76 1.05s.8.38 1.31.38.95-.12 1.31-.37c.36-.25.62-.6.77-1.04.06-.18.1-.38.13-.58.03-.2.04-.46.04-.76 0-.31-.01-.56-.04-.76-.03-.2-.07-.39-.13-.57Zm-.8 1.95c-.02.16-.05.31-.09.46-.09.26-.24.47-.44.61-.21.14-.46.21-.75.21s-.54-.07-.75-.22c-.21-.14-.35-.35-.44-.61-.04-.15-.07-.3-.09-.46-.02-.16-.03-.36-.03-.62s0-.46.03-.62c.02-.15.05-.3.09-.45.09-.26.24-.47.44-.61.21-.14.46-.21.75-.21s.54.07.75.22c.2.14.35.35.44.61.04.15.08.3.09.45.02.15.03.36.03.62s-.01.46-.03.62ZM134.49 360.77c-.09-.05-.19-.1-.32-.13-.12-.04-.28-.05-.46-.06-.33 0-.61.07-.84.22-.23.15-.4.34-.51.58h-.01v-.24c0-.15-.04-.27-.13-.36a.445.445 0 0 0-.33-.13c-.13 0-.24.04-.33.13s-.13.21-.13.36v4.39c0 .15.03.28.12.36s.2.13.33.13.24-.04.33-.13.13-.21.13-.36v-2.55c0-.44.09-.81.27-1.1s.46-.44.85-.44c.11 0 .21.01.31.04.09.03.19.06.3.09.09.04.17.06.23.06.14 0 .25-.04.33-.13.08-.09.13-.2.13-.33 0-.17-.09-.3-.26-.4ZM140.4 362.28c.09-.28.24-.49.44-.62.21-.14.45-.2.74-.2.23 0 .43.04.58.12.15.08.29.19.42.32.06.07.12.12.19.16.07.04.14.06.22.06.12 0 .21-.04.29-.11s.12-.17.12-.29c0-.1-.04-.22-.13-.34-.17-.21-.39-.39-.67-.55-.28-.15-.62-.23-1.01-.23-.51 0-.94.12-1.31.36-.37.24-.62.59-.77 1.05-.05.16-.09.35-.12.57-.03.22-.04.47-.05.76 0 .3.01.56.04.78.03.22.07.41.12.57.15.46.4.81.77 1.06.37.24.8.36 1.31.37.4 0 .73-.07 1.01-.22s.5-.33.67-.54a.56.56 0 0 0 .13-.34c0-.12-.04-.21-.11-.29a.385.385 0 0 0-.29-.12c-.08 0-.15.02-.22.06-.07.04-.13.09-.19.16-.12.13-.26.24-.42.32-.15.08-.35.12-.58.12-.29 0-.53-.07-.74-.2-.21-.14-.35-.34-.44-.62-.04-.14-.07-.3-.09-.47a5.4 5.4 0 0 1-.03-.61c0-.24 0-.44.03-.61.02-.17.05-.32.09-.46ZM148.4 360.8c-.09-.05-.19-.09-.32-.13a1.54 1.54 0 0 0-.46-.05c-.33 0-.61.07-.84.22-.23.15-.4.34-.51.58h-.01v-.24c0-.15-.04-.27-.13-.36-.09-.09-.2-.13-.33-.13s-.24.04-.33.13-.13.21-.13.36v4.39c0 .15.03.28.12.36s.2.13.33.13.24-.04.33-.13c.09-.09.13-.21.13-.36v-2.55c0-.44.09-.81.27-1.1.17-.29.46-.44.85-.44.11 0 .21.01.31.04.09.03.19.06.3.09.09.04.17.06.23.06.14 0 .25-.04.33-.13s.13-.2.13-.33c0-.17-.09-.3-.26-.4ZM154.43 365.02c-.04-.08-.06-.16-.08-.23-.01-.07-.02-.17-.02-.31v-1.89c0-.65-.16-1.14-.49-1.47-.33-.33-.86-.5-1.57-.5-.37 0-.68.04-.95.11s-.49.17-.66.28a.38.38 0 0 0-.17.16c-.03.07-.05.14-.05.21 0 .12.04.22.1.29s.17.11.29.11c.07 0 .16-.03.26-.08.12-.07.28-.13.48-.18.19-.05.39-.08.6-.08.46 0 .79.1.98.3.19.2.29.48.28.86v.25s-.02.07-.07.07h-1.2c-.66 0-1.17.13-1.52.4-.36.27-.54.68-.54 1.23 0 .51.16.9.48 1.17.32.27.78.41 1.37.41.39 0 .71-.05.97-.16s.47-.26.65-.46h.01l.21.33c.11.15.25.23.41.23.14 0 .25-.04.34-.12.09-.08.13-.19.13-.31 0-.09-.03-.18-.08-.26l-.19-.34Zm-.99-.72c0 .33-.12.58-.36.76-.24.18-.56.27-.97.27-.35 0-.62-.07-.81-.21-.19-.14-.29-.34-.29-.62 0-.3.11-.52.31-.65.21-.14.54-.2 1-.2h1.06s.07.02.07.07v.58ZM157.72 359.78c.02-.1.06-.18.12-.23s.14-.09.25-.11c.11-.02.24-.03.41-.03.15 0 .26-.04.34-.12.08-.08.12-.18.12-.31a.43.43 0 0 0-.12-.31c-.08-.08-.2-.12-.36-.12h-.08c-.55 0-.96.12-1.23.37s-.4.68-.4 1.31v.46s-.02.07-.07.07h-.3c-.12 0-.22.03-.29.1-.07.07-.11.16-.11.27s.03.2.1.27.17.1.29.1h.3s.07.02.07.07v4.01c0 .15.04.28.12.36.09.09.2.13.33.13s.24-.04.33-.13.13-.21.13-.36v-4.01s.03-.07.07-.07h.78c.12 0 .22-.03.29-.1.07-.07.11-.16.11-.27s-.04-.2-.1-.27c-.07-.07-.17-.1-.29-.1h-.78s-.07-.02-.07-.07v-.52c0-.16.01-.29.04-.39ZM162.11 361.51h.69c.12 0 .22-.03.29-.1.07-.07.11-.16.11-.27s-.04-.2-.1-.27c-.07-.07-.17-.1-.29-.11h-.69s-.07-.02-.07-.07v-1.16c0-.15-.04-.27-.13-.36-.09-.09-.2-.13-.33-.13s-.24.04-.33.13-.13.21-.13.36v1.16s-.02.07-.07.07h-.3c-.12 0-.22.03-.29.1-.07.07-.11.16-.11.27s.04.2.1.27c.07.07.17.1.29.1h.3s.07.02.07.07v2.96c0 .55.1.95.32 1.19s.6.36 1.14.36h.11c.17 0 .29-.04.37-.12.08-.08.12-.18.12-.31s-.04-.23-.12-.31a.446.446 0 0 0-.33-.12c-.28 0-.47-.05-.56-.16-.1-.1-.14-.29-.14-.57v-2.93s.03-.07.07-.07ZM172.51 361.98c-.14-.42-.36-.74-.67-.97-.31-.23-.69-.35-1.14-.35-.4 0-.71.06-.95.2-.24.13-.42.3-.55.5h-.01v-2.35c0-.15-.04-.28-.13-.36s-.2-.13-.33-.13-.24.04-.33.13-.13.21-.13.36v6.6c-.01.15.03.28.12.36s.2.13.33.13.24-.04.33-.13.13-.21.13-.36v-.14h.01c.12.21.31.38.54.51.24.13.55.19.95.19.45 0 .83-.11 1.14-.34.31-.23.54-.55.68-.97.07-.21.11-.43.14-.65.03-.22.04-.48.04-.79 0-.3-.01-.56-.04-.78-.03-.22-.08-.44-.14-.65Zm-.79 2.03c-.01.17-.05.33-.1.47-.09.26-.23.47-.42.61-.19.14-.44.21-.73.21-.3 0-.55-.07-.74-.21-.19-.14-.33-.35-.42-.61-.05-.15-.08-.3-.1-.47s-.02-.37-.02-.61c0-.23 0-.43.02-.59.01-.17.05-.33.1-.47.09-.26.23-.47.42-.61.19-.14.44-.21.74-.21.29 0 .54.07.73.22.19.14.33.35.42.61.05.15.08.31.1.47.01.17.02.37.02.59 0 .23 0 .44-.02.6ZM178.02 361.03c-.35-.24-.79-.36-1.31-.36-.51 0-.94.12-1.3.36-.36.24-.61.59-.76 1.06-.06.17-.1.35-.13.55-.03.2-.04.46-.04.78s.01.57.04.78c.03.2.07.39.13.56.15.46.4.82.76 1.06.36.25.81.37 1.36.37.41 0 .77-.07 1.08-.2.31-.13.58-.31.81-.52a.47.47 0 0 0 .14-.33c0-.11-.04-.2-.11-.28a.37.37 0 0 0-.27-.11c-.1 0-.21.04-.32.13-.2.15-.39.26-.59.33-.19.08-.42.12-.68.11-.33 0-.61-.08-.84-.23-.23-.15-.39-.38-.49-.69-.04-.1-.06-.2-.07-.3-.01-.1-.02-.21-.02-.34 0-.04.02-.07.07-.07h3.09c.11 0 .2-.03.26-.09s.1-.15.1-.25c0-.51-.06-.93-.17-1.28-.15-.45-.4-.8-.75-1.05Zm-.09 1.94h-2.44s-.07-.03-.07-.07c0-.24.03-.44.08-.59.09-.26.24-.47.45-.61s.46-.21.76-.21.55.07.76.22.36.35.45.61c.05.15.08.35.07.59 0 .04-.02.07-.07.07ZM184.25 361.04c-.35-.24-.79-.36-1.31-.37-.51 0-.94.12-1.3.36-.36.24-.61.59-.76 1.05-.06.17-.1.35-.13.56-.03.2-.04.46-.04.78s.01.57.04.78c.03.2.07.39.13.56.15.46.4.82.76 1.06.36.25.81.37 1.36.37.41 0 .77-.07 1.08-.2.31-.14.58-.31.81-.52.09-.09.14-.2.14-.33 0-.11-.04-.2-.11-.28a.37.37 0 0 0-.27-.11c-.1 0-.21.04-.32.13-.2.15-.39.26-.59.33-.19.08-.42.11-.68.11-.33 0-.61-.08-.84-.23-.23-.15-.39-.38-.49-.69-.04-.1-.06-.2-.07-.3-.01-.1-.02-.21-.02-.34 0-.04.02-.07.07-.07h3.09c.11 0 .2-.03.26-.09s.1-.15.1-.25c0-.51-.06-.93-.17-1.28a2 2 0 0 0-.75-1.05Zm-.09 1.94h-2.44s-.07-.03-.07-.07c0-.24.03-.44.08-.59.09-.26.24-.47.45-.61.21-.14.46-.21.76-.21s.55.07.76.22c.21.14.36.35.45.61.05.15.08.35.07.59 0 .04-.02.07-.07.07ZM190.25 360.88c-.09-.05-.19-.09-.32-.13a1.51 1.51 0 0 0-.46-.06c-.33 0-.61.07-.84.22-.23.15-.4.34-.51.58h-.01v-.24c0-.15-.04-.27-.13-.36-.09-.09-.2-.13-.33-.13s-.24.04-.33.13c-.09.09-.13.21-.13.36v4.39c0 .15.03.28.12.36.09.09.2.13.33.13s.24-.04.33-.13.13-.21.13-.36v-2.55c0-.44.09-.81.27-1.1.17-.29.46-.44.85-.44.11 0 .21.01.31.04.09.03.19.06.3.09.09.04.17.06.23.06.14 0 .25-.04.33-.13.08-.09.13-.2.13-.33 0-.17-.09-.3-.26-.4ZM194.61 363l-.55-.06c-.4-.04-.67-.11-.82-.23s-.22-.28-.22-.49c0-.21.08-.39.25-.52.17-.14.42-.2.75-.2.21 0 .42.03.61.08s.38.12.56.2c.12.06.23.09.33.09.11 0 .2-.04.28-.12.08-.08.12-.17.12-.28 0-.16-.09-.29-.27-.39-.21-.12-.44-.21-.71-.28-.27-.07-.56-.11-.86-.11-.62 0-1.1.14-1.44.42-.34.28-.51.68-.51 1.18 0 .43.13.76.39 1.02.26.25.66.41 1.18.47l.55.06c.42.04.69.13.83.24.13.12.2.29.2.51 0 .24-.1.42-.29.57s-.48.22-.86.22c-.3 0-.57-.05-.8-.14-.23-.09-.46-.2-.67-.33-.07-.04-.12-.06-.17-.08s-.09-.02-.14-.02a.43.43 0 0 0-.31.12.4.4 0 0 0-.12.29c0 .15.07.28.22.38.22.16.49.29.82.41s.69.18 1.1.18c.71 0 1.24-.15 1.61-.46.36-.31.55-.73.55-1.25 0-.43-.12-.78-.38-1.03-.25-.25-.66-.41-1.21-.47ZM218.94 362.76l-14.63-.03c-.37 0-.55.04-.55.11v.64c0 .07.18.11.55.11l14.63.03c.37 0 .55-.04.55-.11v-.64c0-.07-.18-.11-.55-.11ZM24.16 271.96c-.24 0-.44-.07-.59-.22-.16-.14-.25-.37-.29-.67-.02-.12-.1-.17-.22-.14l-1.66.3c-.12.02-.17.09-.14.2.06.71.34 1.27.83 1.68.5.41 1.18.61 2.06.62.94 0 1.66-.25 2.16-.75s.76-1.17.76-2c0-.68-.15-1.24-.45-1.67-.3-.43-.83-.78-1.58-1.05l-.7-.25c-.31-.12-.53-.25-.65-.39a.686.686 0 0 1-.18-.46c0-.2.06-.38.18-.51.12-.14.29-.21.52-.21.24 0 .42.06.54.19.12.13.21.29.27.5.02.12.09.17.2.14l1.57-.29c.1-.02.13-.1.11-.23-.07-.58-.33-1.06-.78-1.46-.45-.4-1.09-.6-1.92-.6-.88 0-1.56.24-2.05.73-.49.48-.74 1.12-.74 1.9 0 .67.17 1.22.53 1.66.35.43.85.76 1.5.99l.7.25c.31.12.52.25.64.39.11.14.17.33.17.57 0 .24-.07.43-.22.57a.8.8 0 0 1-.58.22Z"/><path class="cls-1" d="M29.36 261.27h1.76c.1 0 .18.08.18.18v1.89c0 .1-.08.18-.18.18h-1.76a.18.18 0 0 1-.18-.18v-1.89c0-.1.08-.18.18-.18Z" transform="rotate(-89.88 30.246 262.403)"/><path class="cls-1" d="M26.06 268.1h8.35c.1 0 .18.08.18.18v1.89c0 .1-.08.18-.18.18h-8.35a.18.18 0 0 1-.18-.18v-1.89c0-.1.08-.18.18-.18Z" transform="rotate(-89.88 30.233 269.22)"/><path class="cls-1" d="M35.81 264.88h-1.87c-.12 0-.18.06-.18.17l-.02 8.35c0 .12.06.18.18.18h1.89c.12 0 .18-.06.18-.18v-5.68c.01-.69.27-1.03.77-1.03s.76.34.75 1.03v5.68c-.01.12.05.18.17.18h1.89c.12 0 .18-.06.18-.18v-6.01c.01-.94-.15-1.62-.49-2.04s-.85-.64-1.55-.64c-.42 0-.77.09-1.05.28-.28.19-.5.43-.66.73h-.02v-.67c0-.12-.06-.18-.18-.18ZM44.2 268.22c0-.25 0-.45.01-.58 0-.14.02-.24.03-.31a.71.71 0 0 1 .04-.17c.11-.3.33-.45.67-.45.2 0 .37.07.5.2s.21.36.23.67c.02.13.1.19.22.16l1.73-.32c.1-.01.14-.08.14-.2-.06-.78-.34-1.39-.85-1.83-.51-.44-1.18-.66-2.01-.66-.71 0-1.29.15-1.76.45s-.79.75-.98 1.37c-.04.13-.07.26-.1.39s-.05.29-.07.49c-.02.19-.03.43-.04.72s-.01.65-.01 1.1v1.08c0 .29.02.53.03.73s.04.36.07.5c.03.13.06.26.1.4.19.61.52 1.07.98 1.37.46.3 1.05.45 1.75.45.83 0 1.5-.22 2.01-.66.51-.44.8-1.05.86-1.82 0-.12-.05-.19-.14-.2l-1.73-.33c-.12-.02-.19.03-.22.16-.02.31-.1.53-.24.67-.13.13-.3.2-.5.2-.34 0-.56-.15-.67-.45-.01-.05-.02-.11-.04-.17-.01-.07-.02-.17-.03-.31V268.23ZM55.42 269.99c.12 0 .18-.06.18-.18v-1.39c0-.37-.02-.66-.03-.89a4.75 4.75 0 0 0-.07-.55c-.03-.14-.06-.27-.1-.39-.2-.59-.53-1.04-.99-1.36-.46-.32-1.06-.48-1.8-.48-.73 0-1.33.16-1.78.47-.46.32-.79.77-.99 1.36-.04.12-.07.25-.1.38s-.05.3-.07.5c-.02.2-.03.44-.04.73 0 .29-.01.65-.01 1.08v1.08c0 .29.02.53.03.73s.04.36.07.5c.03.13.06.26.1.38.2.59.53 1.04.98 1.36.45.32 1.05.48 1.79.48.77 0 1.41-.19 1.93-.57s.84-.92.98-1.62c.02-.13-.02-.2-.13-.22l-1.71-.35c-.11-.02-.18.02-.22.13-.14.46-.41.68-.8.68-.36 0-.59-.17-.69-.5-.01-.04-.02-.08-.04-.13-.01-.05-.02-.12-.03-.21s-.01-.21-.02-.35v-.56c0-.07.04-.11.11-.11h3.46Zm-3.53-2.54c.02-.15.04-.27.06-.36.12-.31.35-.46.69-.46s.57.16.69.46c.02.1.04.22.06.37.02.15.03.42.02.83 0 .07-.04.11-.11.11h-1.35c-.07 0-.11-.04-.11-.11 0-.4.01-.68.03-.83ZM191.43 273.9c.12 0 .18-.06.18-.18v-1.66c0-.12-.06-.18-.18-.18h-3.24v-.03l2.56-4.1c.14-.24.27-.47.38-.68s.2-.44.27-.67c.07-.23.13-.49.16-.76.04-.27.06-.58.06-.93 0-.31-.01-.58-.03-.81-.02-.23-.07-.43-.12-.59-.2-.59-.53-1.04-.99-1.35-.46-.31-1.06-.47-1.82-.47s-1.37.16-1.84.47c-.47.32-.8.76-.99 1.34-.06.18-.1.38-.13.61-.02.23-.04.52-.04.86 0 .13.06.2.18.22l1.78.17c.14.02.22-.04.22-.18 0-.36 0-.6.02-.73.01-.13.03-.23.05-.3.11-.32.34-.49.69-.49.36 0 .59.16.7.49.02.07.04.16.05.26.01.1.02.27.02.5 0 .49-.04.88-.13 1.15-.08.28-.22.57-.42.88l-3.09 5.02c-.06.12-.09.23-.09.34v1.6c0 .12.06.18.18.18h5.6ZM193.97 271.84c.02.15.05.28.09.39.19.6.53 1.06 1.01 1.37.48.31 1.08.47 1.8.47s1.32-.15 1.81-.46c.49-.3.83-.76 1.01-1.38.04-.11.07-.24.09-.39.02-.15.05-.38.06-.68.02-.31.03-.73.04-1.26 0-.53.01-1.24.01-2.12v-2.12c0-.53-.02-.95-.03-1.26s-.04-.53-.06-.68c-.02-.15-.05-.28-.09-.39-.18-.61-.51-1.07-1-1.38-.49-.31-1.09-.46-1.81-.46s-1.32.15-1.8.46c-.48.31-.82.77-1.01 1.37-.04.11-.07.24-.1.39-.03.15-.05.38-.07.68s-.03.73-.04 1.26c0 .53-.01 1.24-.01 2.12v2.12c0 .53.02.95.03 1.26.02.31.04.53.06.68Zm2.15-4.06v-2.02c0-.49 0-.86.01-1.11 0-.25.02-.42.03-.5.01-.08.02-.15.04-.2.1-.31.33-.47.69-.47s.6.16.69.47c.01.05.02.11.04.2.01.08.02.25.03.5v5.16c0 .49 0 .85-.01 1.11 0 .25-.02.42-.03.5-.01.08-.02.15-.04.2-.1.31-.33.47-.69.47s-.6-.16-.69-.47c-.01-.05-.02-.11-.04-.2-.01-.08-.02-.25-.03-.5V267.78ZM205.32 266.78l-3.09 5.02c-.06.12-.09.23-.09.34v1.6c0 .12.06.18.18.18h5.6c.12.01.18-.05.18-.17v-1.66c0-.12-.06-.18-.18-.18h-3.24v-.02l2.56-4.1c.14-.24.27-.47.38-.68s.2-.44.27-.67c.07-.23.13-.49.16-.75.04-.27.06-.58.06-.93 0-.31-.01-.58-.03-.81-.02-.23-.07-.43-.12-.59-.2-.59-.53-1.04-.99-1.35-.46-.31-1.06-.47-1.82-.47s-1.37.16-1.84.47c-.47.32-.8.76-.99 1.34-.06.18-.1.38-.13.61-.02.23-.04.52-.04.86 0 .13.06.2.18.22l1.78.17c.14.02.22-.04.22-.18 0-.36 0-.6.02-.73.01-.13.03-.23.05-.3.11-.32.34-.49.69-.48.36 0 .59.16.7.49.02.07.04.16.05.26.01.1.02.27.02.5 0 .49-.04.88-.13 1.15-.08.28-.22.57-.42.88ZM213.55 266.79l-3.09 5.02c-.06.12-.09.23-.09.34v1.6c0 .12.06.18.18.18h5.6c.12.01.18-.05.18-.17v-1.66c0-.12-.06-.18-.18-.18h-3.24v-.02l2.56-4.1c.14-.24.27-.47.38-.68a4.267 4.267 0 0 0 .43-1.43c.04-.27.06-.58.06-.93 0-.31-.01-.58-.03-.81-.02-.23-.07-.43-.12-.59-.2-.59-.53-1.04-.99-1.35-.46-.31-1.06-.47-1.82-.47s-1.37.16-1.84.47c-.47.32-.8.76-.99 1.34-.06.18-.1.38-.13.61-.02.23-.04.52-.04.86 0 .13.06.21.18.22l1.78.16c.14.03.22-.03.22-.18 0-.36 0-.6.02-.73.01-.13.03-.23.05-.3.11-.32.34-.49.69-.49.36 0 .59.16.7.49.02.07.04.16.05.26.01.1.02.27.02.5 0 .49-.04.88-.13 1.15-.08.28-.22.57-.42.88Z"/></g></svg>